<?xml version="1.0" standalone="no"?><!DOCTYPE svg PUBLIC "-//W3C//DTD SVG 1.1//EN" "http://www.w3.org/Graphics/SVG/1.1/DTD/svg11.dtd"><svg t="1522638172036" class="icon" style="" viewBox="0 0 1024 1024" version="1.1" xmlns="http://www.w3.org/2000/svg" p-id="16478" xmlns:xlink="http://www.w3.org/1999/xlink" width="200" height="200"><defs><style type="text/css"></style></defs><path d="M537.6 665.6c-12.8 12.8-12.8 32 0 44.8 6.4 6.4 12.8 6.4 25.6 6.4 6.4 0 19.2 0 25.6-6.4l128-134.4s6.4-6.4 6.4-12.8v-19.2-6.4c0-6.4-6.4-12.8-6.4-12.8l-134.4-128c-12.8-12.8-32-12.8-44.8 0-12.8 12.8-12.8 38.4 0 51.2l76.8 76.8H96c-19.2 0-32 12.8-32 32s12.8 32 32 32h524.8l-83.2 76.8z" p-id="16479" fill="#bfbfbf"></path><path d="M960 384c0-6.4-6.4-12.8-6.4-19.2L704 128c-6.4-6.4-6.4-6.4-12.8-6.4h-6.4-371.2c-76.8 0-140.8 64-140.8 140.8v172.8c0 19.2 12.8 32 32 32s25.6-19.2 25.6-38.4V262.4c0-44.8 38.4-76.8 76.8-76.8h339.2v211.2c0 19.2 12.8 32 32 32H896V768c0 44.8-38.4 76.8-76.8 76.8H313.6c-44.8 0-76.8-38.4-76.8-76.8v-89.6c0-19.2-12.8-32-32-32s-32 12.8-32 32V768c0 76.8 64 140.8 140.8 140.8h505.6c76.8 0 140.8-64 140.8-140.8V384c0 6.4 0 6.4 0 0z m-243.2-25.6V224l134.4 134.4h-134.4z" p-id="16480" fill="#bfbfbf"></path></svg>