<?xml version="1.0" standalone="no"?><!DOCTYPE svg PUBLIC "-//W3C//DTD SVG 1.1//EN" "http://www.w3.org/Graphics/SVG/1.1/DTD/svg11.dtd"><svg t="1522641541839" class="icon" style="" viewBox="0 0 1024 1024" version="1.1" xmlns="http://www.w3.org/2000/svg" p-id="6137" xmlns:xlink="http://www.w3.org/1999/xlink" width="64" height="64"><defs><style type="text/css"></style></defs><path d="M695.552 286.72h-94.816a4.736 4.736 0 0 0-4.672 4.736v23.68c0 2.656 2.112 4.736 4.672 4.736h94.816a4.704 4.704 0 0 0 4.672-4.736v-23.68a4.736 4.736 0 0 0-4.672-4.736z m-75.872 21.376c-2.624 0-4.768-2.144-4.768-4.736s2.144-4.736 4.768-4.736a4.736 4.736 0 1 1 0 9.472z m14.272 0c-2.592 0-4.736-2.144-4.736-4.736s2.144-4.736 4.736-4.736c2.56 0 4.672 2.112 4.672 4.736s-2.112 4.736-4.672 4.736z m47.328 0h-23.68c-2.592 0-4.672-2.144-4.672-4.736s2.08-4.736 4.672-4.736h23.68a4.736 4.736 0 1 1 0 9.472z m14.272-59.2h-94.816a4.736 4.736 0 0 0-4.672 4.736v23.68c0 2.624 2.112 4.736 4.672 4.736h94.816a4.768 4.768 0 0 0 4.672-4.736v-23.68a4.736 4.736 0 0 0-4.672-4.736z m-75.872 21.28a4.768 4.768 0 0 1-4.768-4.736 4.736 4.736 0 0 1 9.504 0 4.736 4.736 0 0 1-4.736 4.736z m14.272 0a4.736 4.736 0 0 1-4.736-4.736 4.704 4.704 0 0 1 9.408 0 4.736 4.736 0 0 1-4.672 4.736z m47.328 0h-23.68a4.704 4.704 0 0 1-4.672-4.736c0-2.592 2.08-4.704 4.672-4.704h23.68a4.736 4.736 0 1 1 0 9.44z m14.272-59.168h-94.816a4.704 4.704 0 0 0-4.672 4.704v23.712c0 2.624 2.112 4.704 4.672 4.704h94.816a4.736 4.736 0 0 0 4.672-4.704v-23.712a4.704 4.704 0 0 0-4.672-4.704z m-75.872 21.28a4.8 4.8 0 0 1-4.768-4.736 4.768 4.768 0 0 1 9.504 0 4.736 4.736 0 0 1-4.736 4.736z m14.272 0a4.736 4.736 0 0 1 0-9.472 4.736 4.736 0 1 1 0 9.472z m47.328 0h-23.68a4.704 4.704 0 0 1-4.672-4.736c0-2.624 2.08-4.736 4.672-4.736h23.68a4.736 4.736 0 1 1 0 9.472z" p-id="6138" fill="#bfbfbf"></path><path d="M856.768 400.352a328.96 328.96 0 0 1-20.672-20.128 38.592 38.592 0 0 1-10.336-19.904h-237.184a87.488 87.488 0 0 1-87.392-87.424v-0.288c0-44.8 33.888-81.728 77.472-86.464l23.68-2.528 10.912-20.8a120 120 0 0 1 106.432-64.8h0.064a120.32 120.32 0 0 1 117.824 96.768l2.496 12.672a271.36 271.36 0 0 1 14.976-14.752c8.768-8.288 17.92-10.304 24.576-10.304a163.68 163.68 0 0 0-159.872-128.032 163.84 163.84 0 0 0-145.344 88.32 130.944 130.944 0 0 0-116.96 130.208c0 72.384 58.816 131.2 131.168 131.2h272.864a52.736 52.736 0 0 1-15.36-17.12l10.656 13.376z" p-id="6139" fill="#bfbfbf"></path><path d="M1022.176 284.064c-0.448-6.272-1.6-6.88-7.808-6.336-6.912 0.544-12.736-2.88-15.072-8.896a14.272 14.272 0 0 1 4.672-16.832c3.52-2.976 4.064-5.344 0.768-8.832a261.984 261.984 0 0 0-15.424-15.008c-4.16-3.68-6.144-3.2-9.6 1.248a14.208 14.208 0 0 1-17.568 4.096c-5.76-2.72-8.48-7.712-8.032-14.816 0.288-4.864-1.088-6.592-6.016-6.944-3.808-0.32-7.52-0.512-11.136-0.704-3.712 0.416-7.264 0.704-10.656 1.184-4.832 0.64-5.856 2.016-5.44 6.976 0.608 7.52-2.56 13.184-8.768 15.776-6.048 2.496-12.288 0.704-17.024-4.896-2.784-3.328-5.248-3.808-8.352-0.864a244.384 244.384 0 0 0-15.136 15.328c-4.064 4.576-3.584 6.144 1.088 10.08a13.76 13.76 0 0 1 5.088 14.24 13.696 13.696 0 0 1-10.752 11.008c-2.176 0.448-4.544 0.16-6.72 0.128-3.072 0-4.96 1.376-5.44 4.352a83.104 83.104 0 0 0 0.48 25.376c0.512 2.784 2.24 4.064 5.536 3.872 1.792-0.128 3.52-0.544 5.216-0.384a14.432 14.432 0 0 1 12.576 10.464 14.176 14.176 0 0 1-5.28 15.264c-3.936 3.232-4.448 5.504-0.928 9.184 4.8 5.152 9.92 10.176 15.168 14.816 4.544 4 6.304 3.52 10.016-1.248a14.336 14.336 0 0 1 20.736-2.112c4.288 3.68 5.44 8.256 4.832 13.6-0.384 3.968 1.024 6.24 4.544 6.304 7.744 0.16 15.552 0.192 23.328-0.288 5.056-0.288 6.016-2.08 5.472-7.2-0.8-7.424 2.304-13.216 8.448-15.84 6.272-2.656 12.672-0.896 17.312 4.928 2.88 3.488 5.376 4 8.576 0.928a240.96 240.96 0 0 0 15.424-15.904c3.52-4 3.008-6.144-1.216-9.376a13.696 13.696 0 0 1-5.856-11.008c-0.544-8.864 6.848-15.744 16.096-14.848 4.832 0.48 7.072-0.864 7.136-4.96 0.16-2.304 0.16-5.056 0.16-7.84 0-4.896-0.16-9.792-0.448-14.656v0.64z m-83.616 47.936a36.416 36.416 0 0 1-36.192-36.704c0.288-19.776 16.608-36.064 36.032-35.968 20.192 0.032 36.832 16.64 36.608 36.512a36.384 36.384 0 0 1-36.448 36.16z" p-id="6140" fill="#bfbfbf"></path><path d="M278.528 873.44c-4.544-7.84-41.792-56.576-75.296-100.224-25.344-33.504-48.544-63.712-53.856-70.912-16.672-22.112-41.056-22.016-57.184-12.192-12.352 6.784-58.912 33.824-71.776 40.096a34.56 34.56 0 0 0-18.048 21.184c-4.288 18.144 6.24 37.184 13.248 46.752 2.752 3.232 11.136 15.808 23.488 32.416 31.552 43.328 83.968 115.392 93.472 129.536 9.408 14.08 20.8 20.8 31.68 22.624a45.12 45.12 0 0 0 30.752-6.656l6.624-4.448c16.192-10.464 43.328-27.392 61.248-36.288 17.248-8.224 22.432-19.84 24.384-27.776 2.016-8 2.016-19.872-8.736-34.112z m-61.12 12.736c-12.416 6.304-31.168 18.08-42.496 25.44l-4.512 3.008c-6.944 4.416-13.568 2.4-19.328-5.536-6.688-9.984-41.824-58.176-62.848-87.296-7.808-11.072-14.016-19.136-15.36-21.184-5.056-6.784-6.624-13.12-6.112-15.872 0-0.512 0.192-1.376 2.144-2.528 9.6-4.832 42.304-23.456 49.088-27.424a11.84 11.84 0 0 1 8.128-1.44c2.624 0.384 5.44 1.824 8.32 5.632 3.68 4.672 19.168 24.992 36.032 47.36a8520 8520 0 0 1 51.36 67.168 10.752 10.752 0 0 1 2.752 7.424c-0.768 1.376-3.232 3.104-7.168 5.248z" p-id="6141" fill="#bfbfbf"></path><path d="M998.4 462.24c-22.144-52-71.456-37.728-99.968-11.264-10.944 10.08-28.576 30.464-48.608 54.816-36.96 43.904-94.304 102.144-115.072 106.208-26.656 5.184-98.272 6.784-193.76-7.328-29.824-4.32-36.96-14.336-38.88-16.416a18.24 18.24 0 0 1 6.432-9.12c6.496-2.048 51.968-7.232 91.52-11.2 44.832-5.184 90.784-10.272 114.848-14.336 29.184-4.992 41.472-32.512 40.832-57.984-0.608-13.408-1.856-37.12-28.416-53.344l-358.848-4.896c-80.096-7.936-221.152 164.864-221.152 164.864l7.104 34.976 168.672 235.104 29.824-3.936 2.592-2.016c0.608 0 38.272-34.624 68.736-43.904 13.6-3.936 61.6 0 108.32 4.096 62.496 5.184 130.016-2.432 165.6-10.528 43.392-10.208 136.128-89.12 268.384-262.176l1.92-2.048c12.32-14.336 41.536-62.08 29.92-89.568z m-70.272 70.112l-1.76 1.824c-152.576 187.84-208.448 222.464-228.288 226.784-29.92 6.08-92.736 1.792-148-2.592-55.168-4.32-89.888-6.88-104.512-2.464-27.072 8.48-58.144 31.936-66.976 39.744l-11.744 1.568-139.712-183.552-1.12-6.016c21.12-26.848 112-103.872 163.2-115.296 52.48-12.992 174.656-19.424 251.52-13.28 26.464 1.568 47.456 5.984 58.624 6.784 17.6 0.896 25.568 7.744 18.272 23.52 0 0-8.352 0.672-19.552 2.464-21.216 3.424-54.656-3.136-92.736 1.248-52.512-5.536-101.184 13.216-115.936 13.408-10.016 4.32-70.88 39.072-62.336 62.304-10.976 40.256 106.176 86.24 119.648 87.872 27.488 7.04 169.76 7.04 204.48-5.472 22.848-4.288 85.536-71.936 113.024-109.28 17.568-19.808 40.32-46.464 40.32-46.464 14.048-12.96 30.048-37.728 42.4-18.72-1.856 7.936-8.928 22.592-18.816 35.616z" p-id="6142" fill="#bfbfbf"></path></svg>