<?xml version="1.0" standalone="no"?><!DOCTYPE svg PUBLIC "-//W3C//DTD SVG 1.1//EN" "http://www.w3.org/Graphics/SVG/1.1/DTD/svg11.dtd"><svg t="1522637540722" class="icon" style="" viewBox="0 0 1024 1024" version="1.1" xmlns="http://www.w3.org/2000/svg" p-id="11014" xmlns:xlink="http://www.w3.org/1999/xlink" width="64" height="64"><defs><style type="text/css"></style></defs><path d="M955.424 687.936l-42.688 13.312c1.216 9.216 2.56 18.208 2.56 27.744 0 9.376-1.472 18.528-2.944 27.552l43.072 13.408c10.08 2.976 18.528 9.76 23.488 19.008 4.864 9.184 5.792 20.032 2.528 30.016-6.976 20.448-29.696 31.552-51.04 24.992l-43.52-13.504c-9.184 16.352-20.48 31.488-33.536 44.928l26.528 35.104c6.336 8.256 8.992 18.816 7.328 29.12-1.728 10.24-7.616 19.328-16.32 25.12a41.536 41.536 0 0 1-56.544-8.512l-26.72-35.328a226.944 226.944 0 0 1-54.816 17.792v42.784c0 21.376-18.144 38.912-40.512 38.912-22.432 0-40.576-17.376-40.576-38.912v-42.784a224.64 224.64 0 0 1-54.816-17.792l-26.656 35.328a41.76 41.76 0 0 1-56.64 8.512 37.568 37.568 0 0 1-16.224-25.12c-1.696-10.304 0.96-20.864 7.232-29.12l26.88-35.456a207.52 207.52 0 0 1-34.656-44.32l-42.592 13.28c-21.376 6.72-44.192-4.512-51.04-24.96a38.592 38.592 0 0 1 25.92-49.024l42.72-13.248c-1.12-9.184-2.56-18.24-2.56-27.744s1.536-18.56 2.912-27.712l-42.976-13.312c-21.344-6.752-32.896-28.64-25.92-49.056 6.848-20.384 29.664-31.488 51.04-24.896l43.488 13.536c9.376-16.192 20.16-31.616 33.536-45.088l-26.592-35.008a37.76 37.76 0 0 1 8.928-54.304 41.664 41.664 0 0 1 56.672 8.608l26.592 35.296a225.44 225.44 0 0 1 54.976-17.824V476.48c0-21.472 18.08-38.912 40.48-38.912s40.544 17.344 40.544 38.912v42.688a224 224 0 0 1 54.816 17.824l26.72-35.264a41.76 41.76 0 0 1 56.608-8.608c18.08 12.64 22.08 36.864 8.96 54.304l-26.848 35.392c13.248 13.376 25.344 28.032 34.656 44.32l42.592-13.216c21.344-6.592 44.064 4.64 51.04 24.992 6.976 20.448-4.8 42.336-26.08 49.024z m-263.008-94.944c-78.272 0-141.888 60.96-141.888 136.032 0 75.168 63.584 135.936 141.888 135.936 78.336 0 141.824-60.768 141.824-135.936-0.032-75.04-63.456-136.032-141.824-136.032z" p-id="11015" fill="#bfbfbf"></path><path d="M800.032 696.032h-19.168l-0.16 0.16a20.064 20.064 0 0 1 10.368 17.76l0.448 70.496h-198.016v-70.496a20.16 20.16 0 0 1 10.4-17.536H584.704a10.336 10.336 0 0 1-10.432-10.176v-10.112c0-5.664 4.672-10.176 10.432-10.176h10.432v20.32h8.768v-43.456c0-11.232 9.344-20.352 20.864-20.352h135.648c11.52 0 20.864 9.12 20.864 20.352l-0.352 43.136h8.608v-20.32H800c5.792 0 10.432 4.544 10.432 10.144v10.144a10.24 10.24 0 0 1-10.4 10.112z m-143.936 78.88h73.024V764.8h-73.024v10.112z m0-20.352h73.024v-10.176h-73.024v10.176z m0-20.32h73.024v-10.176h-73.024v10.176z m-41.728 30.528a10.24 10.24 0 0 0 10.4 10.112h10.432c5.76 0 10.432-4.576 10.432-10.112a10.304 10.304 0 0 0-10.432-10.208h-10.432a10.304 10.304 0 0 0-10.4 10.208z m146.08-111.872a10.272 10.272 0 0 0-10.432-10.144h-114.784a10.272 10.272 0 0 0-10.432 10.144v50.848h135.648v-50.848z m0 101.664h-10.432a10.336 10.336 0 0 0-10.432 10.208c0 5.568 4.672 10.112 10.432 10.112h10.432a10.272 10.272 0 0 0 10.432-10.112 10.336 10.336 0 0 0-10.432-10.208z m31.296 40.032a10.304 10.304 0 0 1-10.432 10.176h-177.408a10.304 10.304 0 0 1-10.4-10.176v-10.144h198.24v10.144z m-146.08 30.784a10.304 10.304 0 0 1-10.432 10.144h-10.432a10.24 10.24 0 0 1-10.4-10.144v-20.32h31.296v20.32h-0.032z m125.216 0a10.304 10.304 0 0 1-10.432 10.144h-10.432a10.304 10.304 0 0 1-10.432-10.144v-20.32h31.328v20.32h-0.032zM659.712 95.136h72.32c32.896 0 60.864 26.88 60.864 59.808v308.288h39.872V154.944c0-55.008-45.792-99.68-100.736-99.68h-72.32a19.904 19.904 0 1 0 0 39.872M632.96 171.872h-76.544V74.816A71.232 71.232 0 0 0 485.184 3.584h-96.128a71.2 71.2 0 0 0-71.2 71.232V171.84H241.344c-24.768 0-46.848 19.936-46.848 44.672S216.608 263.36 241.344 263.36H632.96c24.608 0 46.88-22.08 46.88-46.816s-22.112-44.672-46.88-44.672z m-195.776-33.856a47.296 47.296 0 0 1-47.168-47.2c0-26.016 21.184-47.168 47.168-47.168s47.2 21.184 47.2 47.168c0 26.016-21.216 47.2-47.2 47.2z" p-id="11016" fill="#bfbfbf"></path><path d="M80.352 824.224V159.264c0-33.12 29.056-64.128 61.984-64.128h72.992a19.904 19.904 0 1 0 0-39.872H142.336c-55.008 0-101.856 49.024-101.856 104v664.8a99.744 99.744 0 0 0 99.68 99.712h347.84v-39.744H140.16a59.904 59.904 0 0 1-59.808-59.808" p-id="11017" fill="#bfbfbf"></path><path d="M692.384 394.432c0 23.808-19.328 43.136-43.136 43.136H237.632a43.136 43.136 0 1 1 0-86.272h411.616c23.808 0 43.136 19.296 43.136 43.136z" p-id="11018" fill="#bfbfbf"></path></svg>