<?xml version="1.0" standalone="no"?><!DOCTYPE svg PUBLIC "-//W3C//DTD SVG 1.1//EN" "http://www.w3.org/Graphics/SVG/1.1/DTD/svg11.dtd"><svg t="1522652843997" class="icon" style="" viewBox="0 0 1024 1024" version="1.1" xmlns="http://www.w3.org/2000/svg" p-id="25156" xmlns:xlink="http://www.w3.org/1999/xlink" width="64" height="64"><defs><style type="text/css"></style></defs><path d="M276.1 811c-6.4 0.5-12.7-0.3-18.8-1.9-2.6-7.5-4.3-23.4-4.3-23.4V429.3c0-7.6-5.4-17.5-3.1-24.6 0.6-1.8 1.2-3.7 2-5.5 1.5-3.7 9.9-4.8 12-8.2H813v55c-3.9-7.1-11.5-12-20.3-12H324.1c-12.7 0-23.1 10.3-23.1 23.1v328.6s11.4 25.4 25.5 25.3H748c-2.6 0.4-5.2 0.5-7.8 0H276.1z" fill="#bfbfbf" p-id="25157"></path><path d="M207.8 376c0-0.3 0.1-0.6 0.1-0.8l0.2-1.1c0.1-0.4 0.1-0.8 0.2-1.2 0.5-2.6 1.2-5.3 2-7.8l0.4-1.2 0.4-1.2 0.9-2.4-0.1 0.2 0.3-1.4-0.2 1.1c0.3-0.7 0.6-1.5 0.9-2.2l0.1-0.2 0.1-0.1c0.3-0.8 0.7-1.5 1-2.2 0.7-1.4 1.3-2.7 2.1-4 0.2-0.4 0.5-0.8 0.7-1.2 0.1-0.3 0.3-0.5 0.4-0.7l0.3-0.5c0.2-0.4 0.5-0.7 0.7-1.1l0.4-0.6 1.2-1.8 74.2-107.2c13.6-19.7 36.1-31.5 60.1-31.5H670c24 0 46.4 11.8 60 31.5l74.2 107.2 1.2 1.8 0.3 0.5c0.2 0.4 0.5 0.7 0.7 1.1l0.1 0.1c0.2 0.4 0.5 0.8 0.7 1.2 0.2 0.4 0.5 0.8 0.7 1.2 0.6 1 1.1 2 1.5 2.8l0.6 1.2c0.3 0.7 0.7 1.4 1 2.2l0.2 0.4c0.3 0.7 0.6 1.4 0.9 2.2 0.5 1.2 0.9 2.5 1.3 3.7 0.1 0.4 0.2 0.7 0.4 1.1 0.8 2.6 1.5 5.2 2 7.8 0.1 0.4 0.2 0.8 0.2 1.2 0.1 0.4 0.1 0.7 0.2 1v0.2c0 0.2 0.1 0.5 0.1 0.7H207.8zM536 258v88l3 3h205.4l-54-83c-4.8-6.9-12.6-11-20.9-11H539l-3 3z m-181.5-3c-8.3 0-16.1 4.1-20.8 10.9L279.9 349H485l3-3v-88l-3-3H354.5z" fill="#bfbfbf" p-id="25158"></path><path d="M280 817c-6.9 0-13.7-1-20.3-2.9-31.1-9-52.7-37.8-52.7-70.1V387.5c0-1.2 0-2.2 0.1-3.2 0-0.7 0.1-1.4 0.1-2.1 0.1-0.9 0.1-1.7 0.2-2.6 0-0.5 0.1-0.9 0.1-1.3 0.1-0.6 0.2-1.2 0.3-1.9 0.1-0.4 0.1-0.7 0.2-1l0.2-1.1c0.1-0.4 0.1-0.8 0.2-1.2 0.5-2.6 1.2-5.2 2-7.7l0.4-1.2 0.4-1.2 0.9-2.4-0.1 0.2 0.3-1.4-0.2 1.1c0.3-0.8 0.6-1.5 0.9-2.3l0.1-0.2 0.1-0.1c0.3-0.8 0.7-1.5 1-2.2 0.7-1.4 1.3-2.7 2.1-4 0.2-0.4 0.5-0.8 0.7-1.2 0.1-0.3 0.3-0.5 0.4-0.7 0 0 0.4-0.7 0.5-0.8l2.1-3.2h584l2.1 3.2c0 0.1 0.2 0.3 0.2 0.3 0.2 0.4 0.5 0.8 0.7 1.2 0.2 0.4 0.5 0.8 0.7 1.2 0.6 1 1.1 2 1.5 2.8l0.6 1.2c0.3 0.7 0.7 1.4 1 2.2l0.2 0.4c0.3 0.7 0.6 1.4 0.9 2.2 0.5 1.2 0.9 2.5 1.3 3.7 0.1 0.4 0.2 0.7 0.4 1.1 0.8 2.6 1.5 5.2 2 7.8 0.1 0.4 0.2 0.8 0.2 1.2 0.1 0.4 0.1 0.7 0.2 1v0.2c0 0.3 0.1 0.6 0.1 0.9 0.1 0.7 0.2 1.3 0.3 1.9v0.1c0 0.4 0.1 0.8 0.1 1.1 0.1 0.9 0.2 1.8 0.2 2.6 0.1 0.7 0.1 1.4 0.1 2.1 0 1 0.1 2.1 0.1 3.2v356.5c0 7.1-1 14.2-3.1 20.9-6.1 20.5-20.9 37.2-40.6 45.8-9.3 4.1-19.1 6.2-29.3 6.2H280z m-1.9-424c-8.4 0-16.2 4.6-20.2 12-1.2 2.1-2 4.3-2.4 6.6-0.3 1.4-0.4 3-0.4 4.5v328.5c0 14 11.4 25.4 25.4 25.4h464.1c14 0 25.4-11.4 25.4-25.4V416.1c0-12.7-10.3-23.1-23.1-23.1H278.1z" fill="#bfbfbf" p-id="25159"></path><path d="M417.5 518c-15 0-26.8-13.8-23.4-29.3 2.2-10.3 13.1-18.7 23.7-18.7h188.7c10.6 0 21.4 8.4 23.7 18.7 3.4 15.5-8.5 29.3-23.4 29.3H417.5z" fill="#bfbfbf" p-id="25160"></path></svg>