<?xml version="1.0" standalone="no"?><!DOCTYPE svg PUBLIC "-//W3C//DTD SVG 1.1//EN" "http://www.w3.org/Graphics/SVG/1.1/DTD/svg11.dtd"><svg t="1522653125847" class="icon" style="" viewBox="0 0 1024 1024" version="1.1" xmlns="http://www.w3.org/2000/svg" p-id="26027" xmlns:xlink="http://www.w3.org/1999/xlink" width="64" height="64"><defs><style type="text/css"></style></defs><path d="M224 544.064m-32 0a32 32 0 1 0 64 0 32 32 0 1 0-64 0Z" fill="#bfbfbf" p-id="26028"></path><path d="M768 576.064h64a32 32 0 0 0 0-64h-64a32 32 0 0 0 0 64zM224 640.064a32 32 0 0 0 0 64h256a32 32 0 0 0 0-64h-256z" fill="#bfbfbf" p-id="26029"></path><path d="M928 320.064h-163.264c1.216 10.624 3.264 21.056 3.264 32s-2.048 21.376-3.264 32H928v448h-832v-448h99.2c-1.152-10.624-3.2-21.056-3.2-32s2.048-21.376 3.2-32H96a64 64 0 0 0-64 64v448a64 64 0 0 0 64 64h832a64 64 0 0 0 64-64v-448a64 64 0 0 0-64-64z" fill="#bfbfbf" p-id="26030"></path><path d="M592 545.92a224 224 0 1 0-223.936-387.968A224 224 0 0 0 592 545.92z m-192-332.544a160 160 0 1 1 160 277.312 160 160 0 0 1-160-277.312zM592 548.032a30.848 30.848 0 0 0-11.776 42.624l96 161.92a32.64 32.64 0 0 0 43.776 11.392 30.784 30.784 0 0 0 11.776-42.56l-96-161.92a32.64 32.64 0 0 0-43.776-11.456z" fill="#bfbfbf" p-id="26031"></path></svg>