<?xml version="1.0" standalone="no"?><!DOCTYPE svg PUBLIC "-//W3C//DTD SVG 1.1//EN" "http://www.w3.org/Graphics/SVG/1.1/DTD/svg11.dtd"><svg t="1522652979715" class="icon" style="" viewBox="0 0 1024 1024" version="1.1" xmlns="http://www.w3.org/2000/svg" p-id="25825" xmlns:xlink="http://www.w3.org/1999/xlink" width="64" height="64"><defs><style type="text/css"></style></defs><path d="M224 384h576a32 32 0 0 0 0-64h-576a32 32 0 0 0 0 64z" fill="#bfbfbf" p-id="25826"></path><path d="M864 128h-704a128 128 0 0 0-128 128v512a128 128 0 0 0 128 128h448v-64h-448a64 64 0 0 1-64-64V256a64 64 0 0 1 64-64h704a64 64 0 0 1 64 64v224h64V256a128 128 0 0 0-128-128z" fill="#bfbfbf" p-id="25827"></path><path d="M704 736a32 32 0 0 0-32 32v128h64v-128a32 32 0 0 0-32-32zM960 672a32 32 0 0 0-32 32v192h64v-192a32 32 0 0 0-32-32zM832 576a32 32 0 0 0-32 32V896h64V608A32 32 0 0 0 832 576zM192 512a32 32 0 0 0 32 32h384v-64h-384A32 32 0 0 0 192 512zM192 672a32 32 0 0 0 32 32h384v-64h-384a32 32 0 0 0-32 32z" fill="#bfbfbf" p-id="25828"></path></svg>