<?xml version="1.0" standalone="no"?><!DOCTYPE svg PUBLIC "-//W3C//DTD SVG 1.1//EN" "http://www.w3.org/Graphics/SVG/1.1/DTD/svg11.dtd"><svg t="1522640804893" class="icon" style="" viewBox="0 0 1024 1024" version="1.1" xmlns="http://www.w3.org/2000/svg" p-id="33629" xmlns:xlink="http://www.w3.org/1999/xlink" width="64" height="64"><defs><style type="text/css"></style></defs><path d="M844.024509 62.813317H180.512007c-38.388532 0-69.604748 31.243861-69.604749 69.632393v759.551922c0 38.388532 31.216216 69.604748 69.604749 69.604749h663.512502c38.388532 0 69.604748-31.216216 69.604749-69.604749V132.44571c0-38.388532-31.216216-69.632393-69.604749-69.632393z m13.326892 829.184315c0 7.337162-5.990753 13.326891-13.326892 13.326892H180.512007c-7.337162 0-13.326891-5.990753-13.326892-13.326892V132.44571c0-7.364807 5.990753-13.354536 13.326892-13.354536h663.512502c7.337162 0 13.326891 5.990753 13.326892 13.354536v759.551922z" fill="#bfbfbf" p-id="33630"></path><path d="M339.533684 591.485242h345.468124c15.552818 0 28.138416-12.585598 28.138416-28.138417v-52.292895c0-10.661718-6.017374-20.417297-15.552818-25.171197l-103.706273-51.826003 26.819653-39.02027a28.227495 28.227495 0 0 0 4.94639-15.937799v-82.382837c0-61.168957-48.885405-109.065289-111.290192-109.065289S403.065769 235.547891 403.065769 296.716848v82.382837a28.078007 28.078007 0 0 0 5.220791 16.32278l27.314189 38.416177-108.213416 51.826004a28.167085 28.167085 0 0 0-15.993089 25.390308v52.292895c0.001024 15.552818 12.586622 28.137393 28.13944 28.137393z m28.138417-62.706833L490.065305 470.16507a28.085174 28.085174 0 0 0 15.085926-18.356217 28.050362 28.050362 0 0 0-4.314653-23.356872l-41.493976-58.337914v-73.397219c0-29.595405 24.154479-52.787432 55.013358-52.787432 30.85888 0 55.013359 23.192026 55.013359 52.787432v73.643976L529.167485 428.836962a28.127154 28.127154 0 0 0-4.066872 22.972915c2.061081 7.886989 7.391428 14.509479 14.674324 18.136081l117.088454 58.50276v6.759691H367.672101v-6.43zM372.48129 789.775993H263.773337c-15.552818 0-28.138416 12.585598-28.138416 28.138417s12.585598 28.138416 28.138416 28.138416h108.707953c15.552818 0 28.138416-12.585598 28.138417-28.138416 0-15.553842-12.584575-28.138416-28.138417-28.138417zM696.048507 784.444622H581.708161c-15.552818 0-28.138416 12.585598-28.138417 28.138417s12.585598 28.138416 28.138417 28.138416h114.341369c15.552818 0 28.138416-12.585598 28.138417-28.138416s-12.585598-28.138416-28.13944-28.138417zM442.828355 665.130241H263.773337c-15.552818 0-28.138416 12.585598-28.138416 28.138417s12.585598 28.138416 28.138416 28.138416h179.053994c15.552818 0 28.138416-12.585598 28.138417-28.138416 0.001024-15.552818-12.584575-28.138416-28.137393-28.138417zM760.762155 665.130241H581.708161c-15.552818 0-28.138416 12.585598-28.138417 28.138417s12.585598 28.138416 28.138417 28.138416h179.053994c15.552818 0 28.138416-12.585598 28.138416-28.138416s-12.584575-28.138416-28.138416-28.138417z" fill="#bfbfbf" p-id="33631"></path></svg>