<?xml version="1.0" standalone="no"?><!DOCTYPE svg PUBLIC "-//W3C//DTD SVG 1.1//EN" "http://www.w3.org/Graphics/SVG/1.1/DTD/svg11.dtd"><svg t="1522639303057" class="icon" style="" viewBox="0 0 1024 1024" version="1.1" xmlns="http://www.w3.org/2000/svg" p-id="20235" xmlns:xlink="http://www.w3.org/1999/xlink" width="64" height="64"><defs><style type="text/css"></style></defs><path d="M790.211373 178.146353H512v0.054235H233.788627c-17.225313-0.027629-27.549449-5.868661-27.821649-2.825348v-25.049513c0-15.350616 12.497639-27.820626 27.821649-27.820625h612.06502c15.377222 0 27.821649-12.443403 27.821649-27.821649s-12.443403-27.821649-27.821649-27.821649H233.788627c-44.115754 0-79.972403 34.504862-82.900081 77.894068h-0.563842v728.919424c0 46.02422 37.438681 83.463923 83.463923 83.463924h556.422746c46.02422 0 83.463923-37.438681 83.463923-83.463924V247.726058c-0.001023-38.362726-37.439704-69.579705-83.463923-69.579705z m27.820625 695.52792c0 15.350616-12.497639 27.821649-27.821649 27.821649H233.788627c-15.322987 0-27.821649-12.471033-27.821649-27.821649V230.497675c8.676613 2.02717 17.907858 3.345188 27.821649 3.345188h278.211373v-0.054236H790.211373c17.007349 0 27.821649 9.155521 27.821649 13.937431v625.948215z" fill="#bfbfbf" p-id="20236"></path><path d="M607.624894 582.130244c26.737968-23.609721 43.969421-57.741076 43.969421-96.131431 0-70.992891-57.761542-128.726803-128.726803-128.726803S394.140709 415.005922 394.140709 485.998813c0 36.423561 15.347546 69.195965 39.738049 92.63991-66.166979 31.515784-112.334461 98.511641-112.334461 176.551018 0 15.377222 12.443403 27.821649 27.821649 27.821649s27.821649-12.443403 27.821649-27.821649c0-77.404927 62.978357-140.382261 140.355655-140.38226S657.897881 677.785837 657.897881 755.190765c0 15.377222 12.443403 27.821649 27.821649 27.821649s27.821649-12.443403 27.821649-27.821649c-0.001023-75.431993-43.298132-140.29835-105.916285-173.060521z m-84.757382-169.21596c40.319288 0 73.084529 32.79287 73.084529 73.084529 0 40.319288-32.766264 73.112158-73.084529 73.112158s-73.084529-32.79287-73.084529-73.112158c0-40.291658 32.765241-73.084529 73.084529-73.084529z" fill="#bfbfbf" p-id="20237"></path></svg>