<?xml version="1.0" standalone="no"?><!DOCTYPE svg PUBLIC "-//W3C//DTD SVG 1.1//EN" "http://www.w3.org/Graphics/SVG/1.1/DTD/svg11.dtd"><svg t="1522636543275" class="icon" style="" viewBox="0 0 1024 1024" version="1.1" xmlns="http://www.w3.org/2000/svg" p-id="5306" xmlns:xlink="http://www.w3.org/1999/xlink" width="64" height="64"><defs><style type="text/css"></style></defs><path d="M302.08 261.12c11.264 0 20.48-9.216 20.48-20.48V92.16c0-11.264-9.216-20.48-20.48-20.48s-20.48 9.216-20.48 20.48v148.48c0 11.264 9.216 20.48 20.48 20.48zM721.92 261.12c11.264 0 20.48-9.216 20.48-20.48V92.16c0-11.264-9.216-20.48-20.48-20.48s-20.48 9.216-20.48 20.48v148.48c0 11.264 9.216 20.48 20.48 20.48zM252.928 540.672l185.344 185.344c4.096 4.096 9.216 6.144 14.336 6.144 5.12 0 11.264-2.048 15.36-6.144l303.104-304.128c8.192-7.168 8.192-20.48 0-28.672-7.168-8.192-20.48-8.192-28.672 0L452.608 683.008 281.6 512c-7.168-8.192-20.48-8.192-28.672 0-8.192 7.168-8.192 20.48 0 28.672z" p-id="5307" fill="#bfbfbf"></path><path d="M913.408 145.408H794.624c-11.264 0-20.48 9.216-20.48 20.48s9.216 20.48 20.48 20.48h118.784c12.288 0 22.528 10.24 22.528 22.528v700.416c0 12.288-10.24 22.528-22.528 22.528H110.592c-12.288 0-22.528-10.24-22.528-22.528V208.896c0-12.288 10.24-22.528 22.528-22.528h118.784c11.264 0 20.48-9.216 20.48-20.48s-9.216-20.48-20.48-20.48H110.592c-34.816 0-63.488 28.672-63.488 63.488v700.416c0 34.816 28.672 63.488 63.488 63.488h802.816c34.816 0 63.488-28.672 63.488-63.488V208.896c0-34.816-28.672-63.488-63.488-63.488z" p-id="5308" fill="#bfbfbf"></path><path d="M374.784 186.368h273.408c11.264 0 20.48-9.216 20.48-20.48s-9.216-20.48-20.48-20.48H374.784c-11.264 0-20.48 9.216-20.48 20.48s9.216 20.48 20.48 20.48z" p-id="5309" fill="#bfbfbf"></path></svg>