<?xml version="1.0" standalone="no"?><!DOCTYPE svg PUBLIC "-//W3C//DTD SVG 1.1//EN" "http://www.w3.org/Graphics/SVG/1.1/DTD/svg11.dtd"><svg t="1522640696579" class="icon" style="" viewBox="0 0 1028 1024" version="1.1" xmlns="http://www.w3.org/2000/svg" p-id="31838" xmlns:xlink="http://www.w3.org/1999/xlink" width="64" height="64"><defs><style type="text/css"></style></defs><path d="M191.2 632.1h647.2v184H191.2z" fill="#bfbfbf" p-id="31839"></path><path d="M429.2 213.3l85.8-148.7 85.8 148.7z" fill="#bfbfbf" p-id="31840"></path><path d="M0 959.4l85.7-148.7 85.9 148.7z" fill="#bfbfbf" p-id="31841"></path><path d="M856.8 959.4l85.8-148.7 85.8 148.7z" fill="#bfbfbf" p-id="31842"></path><path d="M838.3 630.1l-97.4-168.8c-0.6-1-1.6-1.6-2.8-1.6H290.2c-1.1 0-2.2 0.6-2.8 1.6l-95.8 166c-0.3 0.5-0.4 1-0.4 1.6 0 1.8 1.4 3.2 3.2 3.2h644.4v-0.4c0-0.5-0.2-1.1-0.5-1.6z" fill="#bfbfbf" p-id="31843"></path><path d="M260 699.8h55v55h-55zM375.1 713.8v27h-27v-27h27m14-14h-55v55h55v-55zM408.3 699.8h55v55h-55zM523.5 713.8v27h-27v-27h27m14-14h-55v55h55v-55zM556.7 699.8h55v55h-55zM672 713.8v27h-27v-27h27m14-14h-55v55h55v-55zM705.1 699.8h55v55h-55z" fill="#bfbfbf" p-id="31844"></path><path d="M808.4 662.1v124H221.3v-124h587.1m30-30H191.3v184h647.2v-184h-0.1z" fill="#bfbfbf" p-id="31845"></path></svg>