<?xml version="1.0" standalone="no"?><!DOCTYPE svg PUBLIC "-//W3C//DTD SVG 1.1//EN" "http://www.w3.org/Graphics/SVG/1.1/DTD/svg11.dtd"><svg t="1522651237400" class="icon" style="" viewBox="0 0 1024 1024" version="1.1" xmlns="http://www.w3.org/2000/svg" p-id="19635" xmlns:xlink="http://www.w3.org/1999/xlink" width="64" height="64"><defs><style type="text/css"></style></defs><path d="M236.307692 275.692308h236.307693v157.538461H236.307692z" fill="#bfbfbf" p-id="19636"></path><path d="M472.615385 464.738462H236.307692c-17.329231 0-31.507692-14.178462-31.507692-31.507693V275.692308c0-17.329231 14.178462-31.507692 31.507692-31.507693h236.307693c17.329231 0 31.507692 14.178462 31.507692 31.507693v157.538461c0 17.329231-14.178462 31.507692-31.507692 31.507693z m-204.8-63.015385h173.292307V307.2H267.815385v94.523077z" fill="#bfbfbf" p-id="19637"></path><path d="M827.076923 937.353846H512c-60.652308 0-110.276923-49.624615-110.276923-110.276923V512c0-60.652308 49.624615-110.276923 110.276923-110.276923h315.076923c60.652308 0 110.276923 49.624615 110.276923 110.276923v315.076923c0 60.652308-49.624615 110.276923-110.276923 110.276923zM512 464.738462c-25.993846 0-47.261538 21.267692-47.261538 47.261538v315.076923c0 25.993846 21.267692 47.261538 47.261538 47.261539h315.076923c25.993846 0 47.261538-21.267692 47.261539-47.261539V512c0-25.993846-21.267692-47.261538-47.261539-47.261538H512z" fill="#bfbfbf" p-id="19638"></path><path d="M708.923077 779.815385H551.384615c-17.329231 0-31.507692-14.178462-31.507692-31.507693s14.178462-31.507692 31.507692-31.507692h157.538462c17.329231 0 31.507692 14.178462 31.507692 31.507692s-14.178462 31.507692-31.507692 31.507693zM787.692308 622.276923H551.384615c-17.329231 0-31.507692-14.178462-31.507692-31.507692s14.178462-31.507692 31.507692-31.507693h236.307693c17.329231 0 31.507692 14.178462 31.507692 31.507693s-14.178462 31.507692-31.507692 31.507692z" fill="#bfbfbf" p-id="19639"></path><path d="M512 937.353846H196.923077c-60.652308 0-110.276923-49.624615-110.276923-110.276923V196.923077c0-60.652308 49.624615-110.276923 110.276923-110.276923h315.076923c60.652308 0 110.276923 49.624615 110.276923 110.276923v236.307692c0 17.329231-14.178462 31.507692-31.507692 31.507693H512c-25.993846 0-47.261538 21.267692-47.261538 47.261538v315.076923c0 25.993846 21.267692 47.261538 47.261538 47.261539 17.329231 0 31.507692 14.178462 31.507692 31.507692s-14.178462 31.507692-31.507692 31.507692zM196.923077 149.661538c-25.993846 0-47.261538 21.267692-47.261539 47.261539v630.153846c0 25.993846 21.267692 47.261538 47.261539 47.261539h215.827692c-7.089231-14.178462-11.027692-30.72-11.027692-47.261539V512c0-60.652308 49.624615-110.276923 110.276923-110.276923h47.261538V196.923077c0-25.993846-21.267692-47.261538-47.261538-47.261539H196.923077z" fill="#bfbfbf" p-id="19640"></path></svg>