<?xml version="1.0" standalone="no"?><!DOCTYPE svg PUBLIC "-//W3C//DTD SVG 1.1//EN" "http://www.w3.org/Graphics/SVG/1.1/DTD/svg11.dtd"><svg t="1522652342797" class="icon" style="" viewBox="0 0 1024 1024" version="1.1" xmlns="http://www.w3.org/2000/svg" p-id="22871" xmlns:xlink="http://www.w3.org/1999/xlink" width="64" height="64"><defs><style type="text/css"></style></defs><path d="M576.091 549.728h-316.473c-4.353 0-7.899 3.563-7.899 7.882 0 4.354 3.546 7.9 7.899 7.9h316.473c4.371 0 7.9-3.546 7.9-7.9-0.001-4.317-3.529-7.882-7.9-7.882zM838.321 242.928h-158.202c0.843-18.468-2.054-38.55-13.060-57.333-23.699-40.481-75.941-61.283-155.287-61.826-79.066-0.755-130.711 19.45-154.515 59.439-11.603 19.45-14.43 40.481-13.27 59.72l-158.324-0c-64.882 0-117.668 52.769-117.668 117.685v421.869c0 64.916 52.786 117.72 117.668 117.72h652.659c64.916 0 117.685-52.805 117.685-117.72v-421.869c-0.001-64.916-52.77-117.685-117.685-117.685zM399.493 208.171c14.114-23.523 52.558-35.724 111.963-35.355 59.826 0.422 98.972 13.359 113.174 37.409 5.969 10.094 7.32 21.68 6.531 32.704l-238.058-0c-1.053-12.060 0.193-24.47 6.391-34.758zM680.487 691.586c-49.397 0-91.406-31.072-107.872-74.713h-102.167l-46.888-33.388-53.839 37.374-41.868-23.944-50.926 16.414-48.801-45.325 16.361-40.41h331.428c18.362-39.463 58.228-66.83 104.572-66.83 63.722 0 115.386 51.663 115.386 115.403 0 63.74-51.663 115.42-115.386 115.42zM727.060 548.991c-15.027 0-27.191 12.166-27.191 27.175s12.165 27.21 27.191 27.21c15.009 0 27.175-12.201 27.175-27.21s-12.166-27.175-27.175-27.175z" p-id="22872" fill="#bfbfbf"></path></svg>