<?xml version="1.0" standalone="no"?><!DOCTYPE svg PUBLIC "-//W3C//DTD SVG 1.1//EN" "http://www.w3.org/Graphics/SVG/1.1/DTD/svg11.dtd"><svg t="1522640980843" class="icon" style="" viewBox="0 0 1024 1024" version="1.1" xmlns="http://www.w3.org/2000/svg" p-id="35199" xmlns:xlink="http://www.w3.org/1999/xlink" width="64" height="64"><defs><style type="text/css"></style></defs><path d="M219.456 73.152v82.304a64 64 0 0 0 64 64h457.088a64 64 0 0 0 64-64V73.152H896a128 128 0 0 1 128 128V896a128 128 0 0 1-128 128H128a128 128 0 0 1-128-128V201.152a128 128 0 0 1 128-128h91.456z m0 365.696h585.088V365.696H219.52v73.152z m0 219.456h585.088V585.152H219.52v73.152z m0 219.392h585.088v-73.152H219.52v73.152zM356.48 0h310.912a64 64 0 0 1 64 64v18.304a64 64 0 0 1-64 64H356.48a64 64 0 0 1-64-64V64a64 64 0 0 1 64-64z" p-id="35200" fill="#bfbfbf"></path></svg>