<?xml version="1.0" standalone="no"?><!DOCTYPE svg PUBLIC "-//W3C//DTD SVG 1.1//EN" "http://www.w3.org/Graphics/SVG/1.1/DTD/svg11.dtd"><svg t="1522652632590" class="icon" style="" viewBox="0 0 1024 1024" version="1.1" xmlns="http://www.w3.org/2000/svg" p-id="24062" xmlns:xlink="http://www.w3.org/1999/xlink" width="64" height="64"><defs><style type="text/css"></style></defs><path d="M512 0C229.627709 0 0 229.627709 0 512S229.627709 1024 512 1024 1024 794.372291 1024 512 794.372291 0 512 0z m0 996.655196c-267.269721 0-484.655196-217.385475-484.655196-484.655196s217.385475-484.655196 484.655196-484.655196 484.655196 217.385475 484.655196 484.655196-217.385475 484.655196-484.655196 484.655196zM551.472626 695.061453H269.214749c25.056536-115.900782 127.227709-199.994637 248.849162-199.994637 8.352179 0 16.589944 0.572067 24.827709 1.372961 2.288268 0.228827 4.69095 0.457654 6.979218 0.800893 7.436872 0.915307 14.75933 2.059441 22.081788 3.661229 1.372961 0.34324 2.745922 0.572067 4.118882 0.915308 7.208045 1.716201 14.416089 3.775642 21.509721 6.06391 2.173855 0.68648 4.462123 1.487374 6.635978 2.288268 7.665698 2.745922 15.331397 5.835084 22.768268 9.267487 11.212514 5.37743 22.081788 11.441341 32.493408 18.420558 4.69095 3.089162 9.953966 4.576536 15.216983 4.576536 8.809832 0 17.505251-4.233296 22.768268-12.127821 8.352179-12.585475 5.03419-29.518659-7.551285-37.870838-13.386369-8.924246-27.344804-16.704358-41.760894-23.454748-5.491844-2.517095-11.098101-4.919777-16.704357-7.093632l-5.491844-2.059441c-2.402682-0.915307-4.69095-1.830615-7.093631-2.631508 32.722235-28.374525 53.545475-70.135419 53.545475-116.701676 0-85.237989-69.334525-154.458101-154.458101-154.458101s-154.458101 69.334525-154.4581 154.458101c0 46.68067 20.82324 88.441564 53.659888 116.816089-111.896313 38.214078-195.07486 138.211397-207.088268 262.349944-0.68648 7.665698 1.830615 15.331397 6.979218 20.937654 5.148603 5.72067 12.471061 8.924246 20.251173 8.924246H551.472626c15.10257 0 27.344804-12.242235 27.344804-27.344805s-12.242235-27.115978-27.344804-27.115977z m-33.408715-454.335643c55.032849 0 99.882905 44.850056 99.882905 99.882905S573.211173 440.49162 518.063911 440.49162s-99.882905-44.850056-99.882905-99.882905 44.850056-99.882905 99.882905-99.882905z m183.633519 441.063687c-4.576536 1.372961-8.695419 3.661229-12.585475 6.178324l-18.534972-12.814301c1.372961-6.178324 1.487374-12.242235 0.34324-18.077319l19.564693-14.301676c6.063911 3.661229 13.043128 6.178324 20.708827 6.750391 1.144134 0.114413 2.173855 0.114413 3.317989 0.114414 11.212514 0 21.967374-4.004469 30.54838-11.441341 9.381899-8.237765 14.988156-19.564693 15.903463-31.921341 1.716201-25.628603-17.619665-47.939218-43.248268-49.769832-12.471061-0.915307-24.484469 3.203575-33.866368 11.326927-9.381899 8.237765-14.988156 19.564693-15.903464 31.921341-0.34324 5.03419 0.34324 9.839553 1.487374 14.416089l-17.619665 12.928715c-4.004469-2.860335-8.466592-5.263017-13.500782-6.635977-12.013408-3.432402-24.598883-2.059441-35.468156 3.890055s-18.878212 15.903464-22.310615 27.802459c-3.432402 12.013408-2.059441 24.598883 3.890056 35.468156s15.903464 18.878212 27.802458 22.310615c4.347709 1.258547 8.695419 1.830615 13.043129 1.830614 7.780112 0 15.44581-1.945028 22.425028-5.835084 0.915307-0.457654 1.716201-1.144134 2.517095-1.716201l19.221452 13.386369c-1.372961 7.208045-1.372961 14.75933 0.915307 22.196201 6.063911 20.13676 24.598883 33.065475 44.621229 33.065475 4.462123 0 9.038659-0.68648 13.500783-1.945028 24.598883-7.436872 38.557318-33.523128 31.120447-58.122011-7.322458-24.484469-33.408715-38.442905-57.893185-31.006034z m5.37743-87.183017c2.059441-1.830615 4.576536-2.745922 7.322458-2.745921h0.800894c6.063911 0.457654 10.75486 5.72067 10.297207 11.898994-0.228827 2.974749-1.601788 5.72067-3.775642 7.665698-2.288268 1.945028-5.148603 2.860335-8.008939 2.745922-6.063911-0.457654-10.75486-5.72067-10.297207-11.898994 0.114413-2.974749 1.487374-5.72067 3.661229-7.665699z m-71.050726 73.796648c-0.800894 2.860335-2.745922 5.263017-5.37743 6.635978-2.631508 1.487374-5.606257 1.716201-8.466592 0.915307-5.835084-1.716201-9.267486-7.894525-7.551285-13.729609 0.800894-2.860335 2.745922-5.263017 5.37743-6.635977 1.716201-0.915307 3.432402-1.372961 5.37743-1.372961 1.029721 0 2.059441 0.114413 3.089162 0.457654 5.835084 1.601788 9.267486 7.780112 7.551285 13.729608z m82.377654 68.648045c-5.835084 1.716201-12.127821-1.601788-13.844023-7.436871s1.601788-12.127821 7.436872-13.844023 12.127821 1.601788 13.844022 7.436872-1.601788 12.127821-7.436871 13.844022z" fill="#bfbfbf" p-id="24063"></path></svg>