<?xml version="1.0" standalone="no"?><!DOCTYPE svg PUBLIC "-//W3C//DTD SVG 1.1//EN" "http://www.w3.org/Graphics/SVG/1.1/DTD/svg11.dtd"><svg t="1522650181035" class="icon" style="" viewBox="0 0 1024 1024" version="1.1" xmlns="http://www.w3.org/2000/svg" p-id="10454" xmlns:xlink="http://www.w3.org/1999/xlink" width="64" height="64"><defs><style type="text/css"></style></defs><path d="M512.285938 0C230.008265 0 0.4575 229.550765 0.4575 511.828437s229.550765 511.828437 511.828438 511.828438S1024.114375 794.10611 1024.114375 511.828437 794.449235 0 512.285938 0z m0 996.321233c-267.180163 0-484.492796-217.312633-484.492796-484.492796s217.312633-484.492796 484.492796-484.492795 484.492796 217.312633 484.492795 484.492795-217.312633 484.492796-484.492795 484.492796zM682.819167 216.054507H368.973975c-45.178153 0-81.89255 36.714397-81.89255 81.89255v77.317547c0 15.097509 12.238132 27.335642 27.335642 27.335642s27.335642-12.238132 27.335642-27.335642v-77.317547c0-15.097509 12.238132-27.335642 27.335641-27.335642H682.819167c15.097509 0 27.335642 12.238132 27.335641 27.335642v427.648386c0 15.097509-12.238132 27.335642-27.335641 27.335642H368.973975c-15.097509 0-27.335642-12.238132-27.335641-27.335642v-77.317547c0-15.097509-12.238132-27.335642-27.335642-27.335642S287.081425 633.294762 287.081425 648.277896v77.317547c0 45.178153 36.714397 81.89255 81.89255 81.89255H682.819167c45.178153 0 81.89255-36.714397 81.89255-81.89255V297.947057c0-45.063778-36.714397-81.89255-81.89255-81.89255zM463.905283 576.107227c-10.636881 10.636881-10.636881 27.907517 0 38.544398 5.375628 5.375628 12.352508 8.006255 19.329387 8.006255s13.953759-2.630627 19.329387-8.006255l83.608176-83.608176c0.343125-0.343125 0.4575-0.68625 0.800625-1.029376 0.915001-1.029376 1.601251-2.058751 2.401877-3.202501 0.800625-1.143751 1.486876-2.287501 2.058751-3.545628 0.22875-0.343125 0.4575-0.68625 0.68625-1.14375 0.343125-0.800625 0.343125-1.715626 0.571876-2.516252 0.4575-1.372501 0.800625-2.630627 1.029375-4.003127 0.22875-1.258126 0.22875-2.630627 0.228751-3.888753 0-1.372501 0-2.630627-0.228751-3.888752-0.22875-1.372501-0.571875-2.745002-1.029375-4.003127-0.22875-0.800625-0.343125-1.715626-0.571876-2.516252-0.114375-0.343125-0.4575-0.68625-0.68625-1.143751-0.571875-1.258126-1.372501-2.401876-2.058751-3.545627-0.800625-1.143751-1.486876-2.287501-2.401877-3.202502-0.343125-0.343125-0.4575-0.68625-0.800625-1.029375l-83.608176-83.608177c-10.636881-10.636881-27.907517-10.636881-38.544399 0-10.636881 10.636881-10.636881 27.907517 0 38.544399l37.057523 37.057523H206.790126c-15.097509 0-27.335642 12.238132-27.335641 27.335641s12.238132 27.335642 27.335641 27.335642H500.962806l-37.057523 37.057523z" fill="#bfbfbf" p-id="10455"></path></svg>