<?xml version="1.0" standalone="no"?><!DOCTYPE svg PUBLIC "-//W3C//DTD SVG 1.1//EN" "http://www.w3.org/Graphics/SVG/1.1/DTD/svg11.dtd"><svg t="1522650447660" class="icon" style="" viewBox="0 0 1024 1024" version="1.1" xmlns="http://www.w3.org/2000/svg" p-id="14810" xmlns:xlink="http://www.w3.org/1999/xlink" width="64" height="64"><defs><style type="text/css"></style></defs><path d="M615 215H361.7c-0.6 0-1.1-0.5-1.1-1.1v-10.2c0-0.6 0.5-1.1 1.1-1.1H615c0.6 0 1.1 0.5 1.1 1.1v10.2c0 0.6-0.5 1.1-1.1 1.1zM241.8 232.2c-6 6-16.3 1.8-16.3-6.8v-37.8c0-8.5 10.3-12.8 16.3-6.8l32.7 18.9c3.7 3.7 3.7 9.8 0 13.5l-32.7 19z" p-id="14811" fill="#bfbfbf"></path><path d="M245 279.1c-19.4 0-37.6-7.6-51.3-21.2-13.7-13.7-21.2-31.9-21.2-51.3s7.5-37.6 21.2-51.3c13.7-13.7 31.9-21.2 51.3-21.2s37.6 7.6 51.3 21.2c13.7 13.7 21.2 31.9 21.2 51.3s-7.6 37.6-21.2 51.3c-13.7 13.6-31.9 21.2-51.3 21.2z m0-131.5c-32.5 0-58.9 26.4-58.9 58.9s26.4 58.9 58.9 58.9 58.9-26.4 58.9-58.9-26.4-58.9-58.9-58.9z m0 0M657.4 959.6c-72.2 0-140.1-28.2-191.2-79.1-51.1-51.1-79.1-119-79.1-191.2 0-72.2 28-140.2 79.1-191.2 51.1-51.1 119-79.1 191.2-79.1s140.1 28.2 191.2 79.1c51.1 51.1 79.1 119 79.1 191.2 0 72.2-28.2 140.1-79.1 191.2-51.2 50.9-119.1 79.1-191.2 79.1z m0-511c-132.7 0-240.6 107.9-240.6 240.5s107.9 240.7 240.6 240.7 240.5-107.9 240.5-240.5S790 448.6 657.4 448.6z m0 21.1" p-id="14812" fill="#bfbfbf"></path><path d="M645.6 697V556.2c0-0.6 0.5-1.1 1.1-1.1h10.2c0.6 0 1.1 0.5 1.1 1.1V697c0 0.6-0.5 1.1-1.1 1.1h-10.2c-0.6 0-1.1-0.5-1.1-1.1z" p-id="14813" fill="#bfbfbf"></path><path d="M655.5 687.6l99.5 99.5c0.4 0.4 0.4 1.1 0 1.6l-7.2 7.2c-0.4 0.4-1.1 0.4-1.6 0l-99.5-99.5c-0.4-0.4-0.4-1.1 0-1.6l7.2-7.2c0.4-0.4 1.1-0.4 1.6 0zM699.8 335.9h-621c-0.6 0-1.1-0.5-1.1-1.1v-10.2c0-0.6 0.5-1.1 1.1-1.1h621c0.6 0 1.1 0.5 1.1 1.1v10.2c0 0.6-0.5 1.1-1.1 1.1z" p-id="14814" fill="#bfbfbf"></path><path d="M357.7 507.8H172.4c-0.6 0-1.1-0.5-1.1-1.1v-10.2c0-0.6 0.5-1.1 1.1-1.1h185.2c0.6 0 1.1 0.5 1.1 1.1v10.2c0 0.6-0.4 1.1-1 1.1zM357.7 630.7H172.4c-0.6 0-1.1-0.5-1.1-1.1v-10.2c0-0.6 0.5-1.1 1.1-1.1h185.2c0.6 0 1.1 0.5 1.1 1.1v10.2c0 0.6-0.4 1.1-1 1.1zM357.7 753.5H172.4c-0.6 0-1.1-0.5-1.1-1.1v-10.2c0-0.6 0.5-1.1 1.1-1.1h185.2c0.6 0 1.1 0.5 1.1 1.1v10.2c0 0.6-0.4 1.1-1 1.1z" p-id="14815" fill="#bfbfbf"></path><path d="M365.5 944.7c0-7.4-6-13.4-13.4-13.4H130.3c-19.3 0-35-14.6-35-32.4V121.3c0-17.9 15.7-32.4 35-32.4H647c19.3 0 35 14.6 35 32.4v191.5c0 8 6.5 14.4 14.4 14.4 8 0 14.4-6.5 14.4-14.4V121.3c0-32.6-28.6-59.1-63.8-59.1H130.3c-35.2 0-63.8 26.5-63.8 59.1V899c0 32.6 28.6 59.1 63.8 59.1h221.8c7.5 0 13.4-6 13.4-13.4z" p-id="14816" fill="#bfbfbf"></path></svg>