<?xml version="1.0" standalone="no"?><!DOCTYPE svg PUBLIC "-//W3C//DTD SVG 1.1//EN" "http://www.w3.org/Graphics/SVG/1.1/DTD/svg11.dtd"><svg t="1522640434864" class="icon" style="" viewBox="0 0 1024 1024" version="1.1" xmlns="http://www.w3.org/2000/svg" p-id="29080" xmlns:xlink="http://www.w3.org/1999/xlink" width="64" height="64"><defs><style type="text/css"></style></defs><path d="M954.988502 780.875958c2.99397 17.956825-0.749492 34.115869-11.223391 48.481929-10.472899 14.36626-24.689261 23.046375-42.646086 26.035348l-107.738753 17.058434c-17.355233 2.99397-33.365178-0.749492-48.034233-11.223391-14.659061-10.472899-23.488075-24.689261-26.483044-42.646086l-91.57871-579.990167c-1.197188-8.978313-0.750491-17.50713 1.345088-25.588651 2.095579-8.079522 5.541243-15.56085 10.328997-22.445782 4.786755-6.882734 10.924593-12.568479 18.403522-17.057835 7.478929-4.488956 15.711348-7.632225 24.69026-9.427008l106.839363-17.057835c17.956625-2.99437 34.119867 0.896392 48.481929 11.670088 14.36526 10.775094 23.045375 25.139356 26.040345 43.095581L954.988502 780.875958zM503.386888 143.422152c17.955826 0 33.216479 6.284139 45.789755 18.855216 12.568479 12.568479 18.85022 27.83113 18.85022 45.787356l0 599.745772c0 17.956825-6.281741 33.217279-18.85022 45.785757-12.573475 12.572476-27.834128 18.855216-45.789755 18.855216l-93.374492 0c-17.956825 0-33.218878-6.28274-45.787756-18.855216-12.570477-12.568479-18.855216-27.829132-18.855216-45.785757L345.369424 208.064724c0-17.956226 4.789753-33.218878 14.36626-45.787356 9.576507-12.570877 23.64237-18.855216 42.19719-18.855216L503.386888 143.422152zM503.386888 595.924755c5.983943 0 11.071494-2.845071 15.260653-8.531216 4.190159-5.686145 6.285738-12.41958 6.285738-20.201304 0-8.37732-2.095579-15.259654-6.285738-20.648001-4.18916-5.388347-9.27671-8.081521-15.260653-8.081521l-93.374492 0c-5.984343 0-11.073892 2.693174-15.262652 8.081521-4.18916 5.388347-6.284139 12.27068-6.284139 20.648001 0 7.781724 2.095179 14.515159 6.284139 20.201304 4.18876 5.686145 9.278109 8.531216 15.262652 8.531216L503.386888 595.924755zM503.386888 481.899864c5.983943 0 11.071494-2.843072 15.260653-8.529217 4.190159-5.685745 6.285738-12.719776 6.285738-21.097096 0-8.379719-2.095579-15.264651-6.285738-20.650399-4.18916-5.387947-9.27671-8.081521-15.260653-8.081521l-93.374492 0c-5.984343 0-11.073892 2.693574-15.262652 8.081521-4.18916 5.385748-6.284139 12.27068-6.284139 20.650399 0 8.37732 2.095179 15.411551 6.284139 21.097096 4.18876 5.686145 9.278109 8.529217 15.262652 8.529217L503.386888 481.899864zM221.470227 143.422152c17.956226 0 33.369775 6.284139 46.23905 18.855216 12.868675 12.568479 19.301913 27.83113 19.301913 45.787356l0 599.745772c0 17.956825-6.433038 33.217279-19.301913 45.785757-12.869275 12.572476-28.282824 18.855216-46.23905 18.855216L128.097734 872.45147c-17.956226 0-33.370375-6.28274-46.23905-18.855216-12.869275-12.568479-19.302313-27.829132-19.302313-45.785757L62.556371 208.064724c0-17.956226 6.433038-33.218878 19.302313-45.787356 12.868675-12.570877 28.282824-18.855216 46.23905-18.855216L221.470227 143.422152zM131.6879 367.876971c-6.584536 0-11.969884 2.694173-16.161043 8.08192-4.18856 5.385349-6.284139 12.270081-6.284139 20.648001 0 7.781124 2.095579 14.515159 6.284139 20.200704 4.191158 5.686145 9.576507 8.531216 16.161043 8.531216l86.191762 0c6.584536 0 11.820985-2.845071 15.711747-8.531216 3.890762-5.685745 5.835044-12.41958 5.835044-20.200704 0-8.37772-1.944282-15.262652-5.835044-20.648001-3.890762-5.387747-9.127212-8.08192-15.711747-8.08192L131.6879 367.876971zM221.470227 649.794032c6.584536 0 11.820985-2.696172 15.711747-8.079522 3.890362-5.388347 5.837042-11.972882 5.837042-19.754606 0-8.381317-1.94668-15.114752-5.837042-20.200304-3.890962-5.085552-9.127212-7.632825-15.711747-7.632825L131.6879 594.126774c-6.584536 0-11.969884 2.547273-16.161043 7.632825-4.18856 5.085552-6.284139 11.818987-6.284139 20.200304 0 7.781724 2.095579 14.36626 6.284139 19.754606 4.191158 5.38335 9.576507 8.079522 16.161043 8.079522L221.470227 649.794032zM221.470227 539.359306c6.584536 0 11.820985-2.692175 15.711747-8.079522 3.890362-5.385349 5.837042-12.27068 5.837042-20.648001 0-8.379719-1.94668-15.264651-5.837042-20.650399-3.890962-5.387947-9.127212-8.081521-15.711747-8.081521L131.6879 481.899864c-6.584536 0-11.969884 2.693774-16.161043 8.081521-4.18856 5.385748-6.284139 12.27068-6.284139 20.650399 0 8.37732 2.095579 15.262652 6.284139 20.648001 4.191158 5.387347 9.576507 8.079522 16.161043 8.079522L221.470227 539.359306z" p-id="29081" fill="#bfbfbf"></path></svg>