<?xml version="1.0" standalone="no"?><!DOCTYPE svg PUBLIC "-//W3C//DTD SVG 1.1//EN" "http://www.w3.org/Graphics/SVG/1.1/DTD/svg11.dtd"><svg t="1522640173745" class="icon" style="" viewBox="0 0 1024 1024" version="1.1" xmlns="http://www.w3.org/2000/svg" p-id="26547" xmlns:xlink="http://www.w3.org/1999/xlink" width="64" height="64"><defs><style type="text/css"></style></defs><path d="M966.571886 424.963657 841.142857 299.536457l0-80.036571-73.142857 0 0-73.142857-80.036571 0-125.429029-125.447314C548.571429 6.965029 530.285714 0 512 0s-36.571429 6.965029-50.499657 20.911543l-125.429029 125.447314L256 146.358857l0 73.142857-73.142857 0 0 80.0896-125.357714 125.374171C43.536457 438.928457 36.571429 457.214171 36.571429 475.499886L36.571429 950.857143c0 20.214857 16.356571 36.571429 36.571429 36.571429l877.714286 0c20.214857 0 36.571429-16.356571 36.571429-36.571429L987.428571 475.499886C987.428571 457.214171 980.500114 438.928457 966.571886 424.963657zM841.142857 402.9824l71.643429 71.643429L841.142857 526.820571 841.142857 402.9824zM512 73.839543l72.4992 72.517486-145.000229 0L512 73.839543zM292.571429 182.928457l438.857143 0 0 36.571429L292.571429 219.499886 292.571429 182.928457zM219.428571 256.071314l585.142857 0 0 297.393371L519.464229 761.179429l-2.2144 3.392-4.000914 4.035657-4.072229-4.035657-4.608-3.392L219.428571 553.428114 219.428571 256.071314zM182.857143 403.035429l0 123.768686L111.250286 474.642286 182.857143 403.035429zM914.285714 914.285714 109.714286 914.285714 109.714286 564.000914l351.786057 256.285257C475.428571 834.249143 493.714286 841.214171 512 841.214171s36.571429-6.965029 50.536229-20.928L914.285714 564.035657 914.285714 914.285714z" p-id="26548" fill="#bfbfbf"></path></svg>