<?xml version="1.0" standalone="no"?><!DOCTYPE svg PUBLIC "-//W3C//DTD SVG 1.1//EN" "http://www.w3.org/Graphics/SVG/1.1/DTD/svg11.dtd"><svg t="1522652460215" class="icon" style="" viewBox="0 0 1024 1024" version="1.1" xmlns="http://www.w3.org/2000/svg" p-id="23295" xmlns:xlink="http://www.w3.org/1999/xlink" width="200" height="200"><defs><style type="text/css"></style></defs><path d="M488.448 527.552c-1.216-3.84-4.992-6.304-9.536-6.304h-124.864c-4.448 0-7.776 2.912-7.776 6.912 0 4.032 3.328 6.912 7.776 6.912h109.344l-46.624 32.672a6.464 6.464 0 0 0-3.04 4.128 6.208 6.208 0 0 0 1.376 5.504 7.296 7.296 0 0 0 6.208 2.912c1.024 0 3.04 0 4.896-1.504l58.976-41.344a8.736 8.736 0 0 0 3.264-9.888z m-132.064-24.896h124.48c4.512 0 7.776-2.88 7.776-6.88 0-3.968-3.296-6.88-7.776-6.88h-108.992l46.304-32.672a6.304 6.304 0 0 0 1.76-9.536 7.488 7.488 0 0 0-6.176-2.912 8.384 8.384 0 0 0-4.768 1.408l-58.784 41.472a8.64 8.64 0 0 0-3.232 9.824c1.152 3.776 4.864 6.176 9.408 6.176z m0 0" p-id="23296" fill="#bfbfbf"></path><path d="M329.728 273.76c-56.448 0-102.272 40.96-102.272 91.2 0 16.224 4.864 32.256 14.048 46.176 8.928 13.536 21.664 24.896 36.928 32.8l4.704 2.464-5.152 1.696A147.968 147.968 0 0 0 208.16 496a122.368 122.368 0 0 0-27.296 76.576c0 4.544 4.128 8.256 9.28 8.256h177.664c5.088 0 9.28-3.712 9.28-8.256 0-4.512-4.224-8.192-9.28-8.192H199.584l0.256-2.592c2.944-28.672 17.824-55.296 41.856-74.88a139.104 139.104 0 0 1 92.224-30.56c1.056 0.032 1.92 0 2.72-0.16l0.256-0.096h0.224c53.344-3.328 95.168-43.296 95.168-91.008-0.032-50.4-46.016-91.328-102.56-91.328z m0.224 166.016c-46.336 0-84-33.568-84-74.816 0-41.248 37.664-74.784 83.936-74.784 46.304 0 83.968 33.536 83.968 74.784s-37.664 74.816-83.904 74.816z m0 0" p-id="23297" fill="#bfbfbf"></path><path d="M615.392 220.864h36.8V92h-92A92 92 0 0 0 468.16 0a92 92 0 0 0-92.064 92H284.032v128.864h331.36z m-294.528-92.032h92.032V92a55.2 55.2 0 1 1 110.432 0v36.832h92.064v55.232h-294.528V128.832zM689.024 128.832v36.8h128.864v286.112c12.512 2.08 24.768 4.768 36.832 8.032V128.832h-165.696zM118.368 957.248V165.632h128.832v-36.8H81.536v865.248h329.728a380.224 380.224 0 0 1-15.488-36.8H118.368z" p-id="23298" fill="#bfbfbf"></path><path d="M384.608 920.448H136.768v18.4h252.576c-1.824-6.048-3.2-12.256-4.736-18.4z" p-id="23299" fill="#bfbfbf"></path><path d="M931.36 988.128l-141.248-141.216a205.696 205.696 0 0 0 52.96-137.856 206.592 206.592 0 0 0-206.624-206.592 206.624 206.624 0 1 0 0 413.216 205.76 205.76 0 0 0 129.28-45.536l141.184 141.184 24.448-23.2z m-469.536-278.752a175.168 175.168 0 0 1 174.944-174.944 175.168 175.168 0 0 1 174.88 174.944 175.104 175.104 0 0 1-174.88 174.848 175.072 175.072 0 0 1-174.944-174.848z" p-id="23300" fill="#bfbfbf"></path></svg>