<?xml version="1.0" standalone="no"?><!DOCTYPE svg PUBLIC "-//W3C//DTD SVG 1.1//EN" "http://www.w3.org/Graphics/SVG/1.1/DTD/svg11.dtd"><svg t="1522651955378" class="icon" style="" viewBox="0 0 1024 1024" version="1.1" xmlns="http://www.w3.org/2000/svg" p-id="21021" xmlns:xlink="http://www.w3.org/1999/xlink" width="64" height="64"><defs><style type="text/css"></style></defs><path d="M921.6 658.944l-186.88-81.92 186.88 81.92s0.512-0.512 0 0c0-0.512 0-0.512 0 0" fill="#bfbfbf" p-id="21022"></path><path d="M922.112 657.92l-186.88-81.92s0-0.512 0.512-0.512c0 0 0-0.512 0.512-0.512s0-0.512 0.512-0.512c0 0 0-0.512 0.512-0.512l186.88 81.92s0 0.512-0.512 0.512c0 0 0 0.512-0.512 0.512s0 0.512-0.512 0.512 0 0.512-0.512 0.512" fill="#bfbfbf" p-id="21023"></path><path d="M923.648 655.872l-186.88-81.92v-0.512-0.512-0.512-0.512l186.88 81.92v1.024c0.512 0.512 0.512 0.512 0 1.024 0-0.512 0 0 0 0" fill="#bfbfbf" p-id="21024"></path><path d="M924.672 654.336l-186.88-81.92v-0.512-0.512-0.512-0.512l186.88 81.408v2.56c0-0.512 0 0 0 0" fill="#bfbfbf" p-id="21025"></path><path d="M925.184 653.312l-186.88-81.408 187.392 81.408c-0.512-1.024-0.512-0.512-0.512 0 0-0.512 0-0.512 0 0 0-0.512 0-0.512 0 0" fill="#bfbfbf" p-id="21026"></path><path d="M925.184 652.288l-187.392-81.408v-1.024c0-0.512-0.512-1.024-0.512-1.536 0-0.512-0.512-1.024-1.024-1.536l-1.536-1.536c-5.12-5.12-10.752-10.752-17.408-16.384-6.656-5.632-13.824-11.776-21.504-17.408s-16.384-11.776-25.6-16.896c-9.216-5.632-18.944-10.24-29.184-14.848l185.344 79.36c10.24 4.608 20.48 9.728 29.696 15.36 9.216 5.632 17.92 11.264 26.112 17.408 8.192 6.144 15.36 12.288 22.016 17.92 6.656 6.144 12.288 11.776 17.408 16.896l1.536 1.536c0.512 0.512 0.512 1.024 1.024 1.536 0 0.512 0.512 1.024 0.512 1.536v1.024c0.512-0.512 0.512-0.512 0.512 0 0-0.512 0-0.512 0 0 0-0.512 0 0 0 0" fill="#bfbfbf" p-id="21027"></path><path d="M582.656 784.896l-175.616-92.672c1.024 0.512 2.56 1.024 3.584 2.048 1.024 0.512 2.56 1.024 3.584 2.048 1.024 0.512 2.56 1.024 3.584 1.536 1.024 0.512 2.56 1.024 3.584 1.536l176.128 92.672c-1.024-0.512-2.56-1.024-3.584-1.536-1.024-0.512-2.56-1.024-3.584-2.048-1.024-0.512-2.56-1.024-3.584-2.048-1.536 0-3.072-1.024-4.096-1.536" fill="#bfbfbf" p-id="21028"></path><path d="M597.504 792.064l-176.128-92.672c3.072 1.536 6.144 2.56 9.216 4.096 3.072 1.024 6.144 2.56 9.216 3.584l9.216 3.072c3.072 1.024 6.144 2.048 9.728 2.56l177.152 93.184c-3.584-1.024-6.656-1.536-9.728-2.56-3.072-1.024-6.656-2.048-9.728-3.072-3.072-1.024-6.144-2.56-9.728-3.584l-9.216-4.608" fill="#bfbfbf" p-id="21029"></path><path d="M635.904 805.888l-177.152-93.184c3.072 1.024 6.144 1.536 9.216 2.048 3.072 0.512 6.144 1.024 9.728 1.536 3.072 0.512 6.144 1.024 9.728 1.536 3.072 0.512 6.656 0.512 9.728 1.024l178.176 92.672c-3.584 0-6.656-0.512-10.24-0.512-3.584-0.512-6.656-0.512-9.728-1.024-3.072-0.512-6.656-1.024-9.728-1.536-3.584-1.024-6.656-2.048-9.728-2.56" fill="#bfbfbf" p-id="21030"></path><path d="M675.328 811.52L496.64 718.848c3.072 0 6.656 0.512 9.728 0.512 3.072 0 6.656 0 9.728-0.512 3.072 0 6.656-0.512 9.728-1.024 3.584-0.512 6.656-1.024 10.24-1.536 10.24-2.048 20.48-4.608 30.72-8.192 9.728-3.584 19.968-7.68 29.184-12.8 9.728-5.12 18.944-10.24 27.648-16.384 8.704-5.632 17.408-12.288 26.112-18.944l183.296 87.552c-8.704 7.168-17.408 13.824-27.136 19.968-9.216 6.144-18.944 12.288-28.672 17.408-9.728 5.12-19.968 9.728-30.208 13.824-10.24 4.096-20.992 6.656-31.744 8.704-3.584 0.512-7.168 1.024-10.24 1.536-3.584 0.512-6.656 1.024-10.24 1.024s-6.656 0.512-10.24 0.512c-2.56 1.536-6.144 1.536-9.216 1.024" fill="#bfbfbf" p-id="21031"></path><path d="M833.536 748.544L650.24 660.992c5.12-4.096 9.728-7.68 14.336-11.776 4.608-4.096 9.216-8.192 13.312-12.288 4.608-4.096 8.704-8.192 12.8-12.288l11.776-11.776 185.856 84.48c-4.096 4.096-8.192 8.704-12.288 12.8-4.096 4.096-8.704 8.704-13.312 12.8-4.608 4.096-9.216 8.704-14.336 12.8-4.608 4.608-9.728 8.704-14.848 12.8" fill="#bfbfbf" p-id="21032"></path><path d="M888.32 697.344l-185.856-84.48c3.072-3.072 6.144-6.656 9.216-9.728 3.072-3.072 5.632-6.144 8.192-9.216 2.56-3.072 5.12-6.144 7.68-8.704 2.56-3.072 4.608-5.632 7.168-8.192l186.88 81.92c-2.048 3.072-4.608 5.632-7.168 8.704-2.56 3.072-5.12 6.144-8.192 9.216-2.56 3.072-5.632 6.656-8.704 9.728-3.072 4.096-6.144 7.168-9.216 10.752" fill="#bfbfbf" p-id="21033"></path><path d="M725.504 625.152L543.744 542.72c1.024 0 1.536 0 2.56-0.512h7.68l182.272 82.432h-7.68c-1.024 0.512-2.048 0.512-3.072 0.512" fill="#bfbfbf" p-id="21034"></path><path d="M735.744 624.64l-182.272-82.432h2.048c0.512 0 1.536 0 2.048 0.512 0.512 0 1.536 0.512 2.048 0.512 0.512 0 1.024 0.512 2.048 0.512l182.272 82.432c-0.512 0-1.536-0.512-2.048-0.512-0.512 0-1.536-0.512-2.048-0.512-0.512 0-1.536 0-2.048-0.512-0.512 0.512-1.536 0-2.048 0" fill="#bfbfbf" p-id="21035"></path><path d="M743.936 626.176l-182.272-82.432c0.512 0 1.024 0.512 1.024 0.512 0.512 0 1.024 0.512 1.024 0.512 0.512 0 1.024 0.512 1.024 0.512 0.512 0 1.024 0.512 1.024 0.512l182.784 82.432c-0.512 0-1.024-0.512-1.024-0.512-0.512 0-1.024-0.512-1.024-0.512l-1.024-0.512c-1.024 0-1.536-0.512-1.536-0.512" fill="#bfbfbf" p-id="21036"></path><path d="M837.12 424.448L649.728 353.28l2.048-60.416 188.416 68.096z" fill="#bfbfbf" p-id="21037"></path><path d="M695.296 744.448L515.584 655.36c-3.584-2.048-7.168-4.096-10.24-7.168-3.072-3.072-5.632-6.656-7.68-10.752-2.048-4.096-3.584-8.192-4.608-13.312-1.024-4.608-1.536-9.728-1.536-15.36v-3.072c0-1.024 0-2.048 0.512-3.072 0-1.024 0.512-2.048 0.512-3.072 0-1.024 0.512-2.048 0.512-3.072l179.712 86.016c0 1.024-0.512 2.048-0.512 3.072 0 1.024-0.512 2.048-0.512 3.072 0 1.024-0.512 2.048-0.512 3.584v3.584c0 5.632 0 11.264 1.024 16.384s2.56 9.728 4.608 13.824c2.048 4.096 4.608 7.68 7.68 10.752 3.072 3.072 6.656 5.632 10.752 7.68" fill="#bfbfbf" p-id="21038"></path><path d="M672.256 682.496l-179.712-86.016c0-1.024 0.512-1.536 0.512-2.56s0.512-1.536 0.512-2.56 0.512-1.536 0.512-2.56 0.512-1.536 1.024-2.56l179.712 85.504c-0.512 1.024-0.512 1.536-1.024 2.56s-0.512 1.536-0.512 2.56-0.512 1.536-0.512 2.56 0 2.048-0.512 3.072" fill="#bfbfbf" p-id="21039"></path><path d="M675.328 672.256l-179.712-85.504c0-0.512 0.512-1.536 0.512-2.048 0-0.512 0.512-1.536 1.024-2.048 0.512-0.512 0.512-1.024 1.024-2.048 0.512-0.512 0.512-1.024 1.024-2.048l180.224 84.992c-0.512 0.512-0.512 1.536-1.024 2.048-0.512 0.512-0.512 1.536-1.024 2.048-0.512 0.512-0.512 1.536-1.024 2.048-0.512 1.536-1.024 2.048-1.024 2.56" fill="#bfbfbf" p-id="21040"></path><path d="M678.912 664.064l-180.224-84.992c0.512-0.512 0.512-1.024 1.024-1.536 0.512-0.512 0.512-1.024 1.024-1.536 0.512-0.512 0.512-1.024 1.024-1.536 0.512-0.512 0.512-1.024 1.024-1.536l180.224 84.992c-0.512 0.512-0.512 1.024-1.024 1.536-0.512 0.512-0.512 1.024-1.024 2.048-0.512 0.512-0.512 1.024-1.024 2.048-0.512-0.512-1.024 0-1.024 0.512" fill="#bfbfbf" p-id="21041"></path><path d="M682.496 656.896l-180.224-84.992c0.512-0.512 0.512-1.024 1.024-1.536 0.512-0.512 0.512-1.024 1.024-1.536s0.512-1.024 1.024-1.536c0.512-0.512 0.512-1.024 1.024-1.536l180.736 84.48c-0.512 0.512-1.024 1.024-1.024 1.536s-1.024 1.024-1.024 1.536c-0.512 0.512-0.512 1.024-1.024 1.536s-1.024 1.536-1.536 2.048" fill="#bfbfbf" p-id="21042"></path><path d="M687.104 650.24L506.88 565.76l1.536-1.536 1.536-1.536 1.536-1.536 1.536-1.536 180.736 83.968-1.536 1.536-1.536 1.536-1.536 1.536-2.048 2.048" fill="#bfbfbf" p-id="21043"></path><path d="M692.736 643.584L512 559.616l1.536-1.536 1.536-1.536c0.512-0.512 1.024-1.024 2.048-1.536 0.512-0.512 1.024-1.024 2.048-1.536l181.248 83.456c-0.512 0.512-1.536 1.024-2.048 1.536-0.512 0.512-1.024 1.024-2.048 1.536-0.512 0.512-1.024 1.024-2.048 1.536 0 1.024-0.512 1.536-1.536 2.048" fill="#bfbfbf" p-id="21044"></path><path d="M700.416 636.928l-181.248-83.456c2.048-1.536 3.584-2.56 5.632-3.584l6.144-3.072c2.048-1.024 4.096-1.536 6.144-2.048 2.048-0.512 4.096-1.024 6.656-1.536l181.76 82.944c-2.048 0.512-4.608 1.024-6.656 1.536-2.048 0.512-4.096 1.536-6.656 2.56-2.048 1.024-4.096 2.048-6.144 3.584-1.536 0-3.584 1.536-5.632 3.072" fill="#bfbfbf" p-id="21045"></path><path d="M958.464 596.48c5.632 6.144 10.24 13.312 12.8 21.504 2.56 7.68 3.584 16.384 3.072 25.088-0.512 8.704-2.56 17.92-6.144 26.624-3.584 8.704-8.704 17.92-15.36 26.112-11.264 13.824-25.088 30.208-40.96 47.104-16.384 16.896-34.816 34.816-55.296 51.712-20.48 16.896-43.008 32.768-67.072 45.568-24.064 12.8-49.664 23.04-76.288 28.16-26.624 5.12-52.224 5.632-76.288 2.048-24.576-3.584-47.104-10.752-68.096-19.968-20.992-9.216-40.448-20.992-57.344-32.256-16.896-11.776-31.232-23.552-43.008-34.304-7.168-6.144-12.288-13.824-15.36-22.016-3.584-8.192-5.12-17.408-4.608-27.136 0-9.216 2.56-19.456 6.144-28.672 4.096-9.728 9.728-18.944 16.896-28.16 12.288-14.848 27.648-32.256 45.568-50.688 17.92-17.92 38.4-36.864 60.928-54.272 22.528-17.408 46.592-33.28 72.192-46.08 25.088-12.8 51.712-22.016 79.36-25.6 27.136-4.096 52.736-2.56 76.288 2.56s45.056 13.824 64.512 24.064c19.456 10.24 36.352 22.528 51.2 34.304 14.848 11.776 27.136 24.064 36.864 34.304z m-36.864 62.464c0.512-1.024 1.024-1.536 1.536-2.048s1.024-1.536 1.024-2.048c0.512-0.512 0.512-1.024 0.512-1.536 0-0.512 0-1.024 0.512-1.024v-1.024c0-0.512-0.512-1.024-0.512-1.536 0-0.512-0.512-1.024-1.024-1.536l-1.536-1.536c-8.704-8.704-19.456-19.456-32.256-29.696s-27.648-20.48-44.544-29.696c-16.896-8.704-35.328-16.384-55.296-20.48-19.968-4.096-41.472-5.632-64-2.048-22.528 3.584-44.544 11.776-66.048 22.528-21.504 10.752-41.984 25.088-60.928 39.936-18.944 15.36-36.352 31.232-51.712 47.104-15.36 15.872-28.672 30.72-39.424 44.032-0.512 1.024-1.536 1.536-2.048 2.56-0.512 0.512-1.024 1.536-1.024 2.048-0.512 0.512-0.512 1.024-0.512 1.536 0 0.512 0 1.024-0.512 1.024v1.024c0 0.512 0.512 1.024 0.512 1.536 0.512 0.512 0.512 1.024 1.024 1.536 0.512 0.512 1.024 1.024 1.536 2.048 9.728 9.216 22.528 19.968 36.864 30.208 14.336 10.24 30.72 20.48 48.64 29.184 17.92 8.192 37.376 14.848 57.856 18.432 20.48 3.584 41.984 3.584 64-0.512 22.016-4.096 43.52-12.8 64-24.064s39.424-24.576 57.344-39.424c17.92-14.848 33.792-30.208 48.128-45.056 15.872-15.36 28.16-29.184 37.888-41.472" fill="#bfbfbf" p-id="21046"></path><path d="M725.504 625.152c7.168-1.024 13.824-0.512 19.968 1.536 6.144 2.048 11.264 5.632 15.872 10.24 4.608 4.608 7.68 10.752 10.24 17.408 2.048 6.656 3.072 14.848 3.072 23.04-0.512 8.192-2.048 16.384-5.12 24.064s-7.168 14.848-11.776 20.992c-5.12 6.144-10.752 11.776-16.896 15.872-6.144 4.096-13.312 7.168-20.48 8.192-7.168 1.536-13.824 1.024-19.968-1.024-6.144-2.048-11.776-5.632-15.872-10.24-4.608-4.608-8.192-10.752-10.24-17.408-2.56-6.656-3.584-14.848-3.072-23.04 0.512-8.704 2.048-16.896 5.12-24.576s7.168-15.36 12.288-21.504c5.12-6.144 10.752-11.776 17.408-15.872 5.632-3.584 12.288-6.144 19.456-7.68z" fill="#bfbfbf" p-id="21047"></path><path d="M737.28 311.808l-185.856-66.56 102.912-10.752 188.928 64.512z" fill="#bfbfbf" p-id="21048"></path><path d="M843.264 299.008l-188.928-64.512-98.816-111.104 187.904 59.392z" fill="#bfbfbf" p-id="21049"></path><path d="M543.744 838.144l-174.08-95.744c-7.68-4.096-14.848-8.704-21.504-12.8-6.656-4.608-13.312-9.216-19.456-13.312-6.144-4.608-11.776-9.216-17.408-13.312-5.12-4.608-10.24-8.704-14.848-12.8-4.096-3.584-7.68-8.192-10.752-12.8-3.072-4.608-5.12-9.728-6.656-14.848-1.536-5.12-2.56-10.752-2.56-15.872 0-5.632 0.512-11.264 1.536-16.896l172.032 91.136c-1.024 6.144-2.048 11.776-1.536 17.92 0 5.632 1.024 11.776 2.56 16.896 1.536 5.632 3.584 10.752 6.656 15.36 3.072 4.608 6.656 9.216 10.752 13.312 4.608 4.096 9.728 8.704 14.848 13.312 5.632 4.608 11.264 9.216 17.408 13.824 6.144 4.608 12.8 9.216 19.968 13.824 7.68 4.096 15.36 8.704 23.04 12.8M450.048 720.896L278.016 629.76c0-1.024 0.512-2.048 0.512-2.56 0-1.024 0.512-2.048 0.512-2.56 0-1.024 0.512-2.048 1.024-2.56 0.512-1.024 0.512-2.048 1.024-2.56l172.544 90.624c-0.512 1.024-0.512 2.048-1.024 3.072-0.512 1.024-0.512 2.048-1.024 3.072-0.512 1.024-0.512 2.048-0.512 3.072s-0.512 0.512-1.024 1.536M453.632 709.12l-172.544-90.624c0.512-0.512 0.512-1.536 1.024-2.048 0.512-0.512 0.512-1.536 1.024-2.048 0.512-0.512 0.512-1.536 1.024-2.048s0.512-1.536 1.024-2.048l172.544 89.6c-0.512 1.024-1.024 1.536-1.024 2.56-0.512 1.024-0.512 1.536-1.024 2.56s-0.512 1.536-1.024 2.56c-0.512 0-1.024 1.024-1.024 1.536M457.728 699.392l-172.544-89.6c0.512-0.512 0.512-1.536 1.024-2.048 0.512-0.512 0.512-1.536 1.024-2.048s1.024-1.536 1.024-2.048 1.024-1.536 1.536-2.048l173.056 89.088c-0.512 0.512-1.024 1.536-1.536 2.048s-1.024 1.536-1.536 2.048c-0.512 0.512-1.024 1.536-1.024 2.56-0.512 0.512-1.024 1.536-1.024 2.048M462.848 690.176l-173.056-89.088c0.512-0.512 1.024-1.536 1.536-2.048 0.512-0.512 1.024-1.536 1.536-2.048 0.512-0.512 1.024-1.536 1.536-2.048 0.512-0.512 1.024-1.536 1.536-2.048L468.992 680.96c-0.512 0.512-1.024 1.536-1.536 2.56-0.512 1.024-1.024 1.536-1.536 2.56-0.512 1.024-1.024 1.536-1.536 2.56-0.512 0-1.024 1.024-1.536 1.536" fill="#bfbfbf" p-id="21050"></path><path d="M468.992 680.96l-173.056-88.576 0.512-0.512 0.512-0.512 0.512-0.512 0.512-0.512c2.56-3.072 5.632-6.656 8.192-9.728 3.072-3.584 6.144-6.656 9.216-10.24 3.072-3.584 6.656-7.168 10.24-10.752 3.584-3.584 7.168-7.68 10.752-11.264l175.104 85.504c-4.096 4.096-7.68 8.192-11.264 12.288-3.584 4.096-7.168 7.68-10.752 11.776-3.584 3.584-6.656 7.68-9.728 11.264-3.072 3.584-6.144 7.168-8.704 10.24 0 0.512-0.512 0.512-0.512 1.024s-0.512 0.512-0.512 1.024-0.512 0.512-0.512 1.024 0-1.536-0.512-1.536M512.512 632.32l-175.104-85.504 14.336-14.336c5.12-4.608 10.24-9.728 15.872-14.336 5.632-4.608 10.752-9.728 16.896-14.336 5.632-4.608 11.776-9.216 17.408-13.824l178.176 81.92c-6.144 4.608-12.288 9.728-18.432 14.848-6.144 5.12-11.776 10.24-17.408 15.36s-11.264 10.24-16.384 15.36c-5.632 5.12-10.752 10.24-15.36 14.848" fill="#bfbfbf" p-id="21051"></path><path d="M579.584 571.904l-178.176-81.92c10.752-8.192 21.504-15.36 33.28-22.528 11.264-7.168 23.04-13.312 35.328-19.456 12.288-5.632 24.576-10.752 37.376-14.848 12.8-4.096 25.6-6.656 38.4-8.704 4.096-0.512 8.704-1.024 12.8-1.536 4.096-0.512 8.192-0.512 12.288-0.512h12.288c4.096 0 8.192 0.512 11.776 1.024l184.832 75.776c-4.096-0.512-8.192-0.512-12.288-1.024h-12.8c-4.096 0-8.704 0.512-12.8 0.512-4.608 0.512-8.704 1.024-13.312 1.536-13.312 2.048-26.624 5.12-39.936 9.728-13.312 4.096-26.112 9.728-38.4 15.872-12.8 6.144-25.088 13.312-36.864 20.992-11.264 8.192-22.528 16.384-33.792 25.088" fill="#bfbfbf" p-id="21052"></path><path d="M780.288 500.224l-184.832-75.776c4.096 0.512 7.68 1.024 11.776 1.536 4.096 0.512 7.68 1.536 11.264 2.048 3.584 1.024 7.68 1.536 11.264 2.56l10.752 3.072 186.368 75.776c-3.584-1.024-7.168-2.048-11.264-3.072-3.584-1.024-7.68-2.048-11.264-2.56-4.096-1.024-7.68-1.536-11.776-2.048-4.096-1.024-8.192-1.536-12.288-1.536" fill="#bfbfbf" p-id="21053"></path><path d="M826.88 509.44l-186.368-75.776 4.608 1.536 4.608 1.536 4.608 1.536 4.608 1.536 186.88 75.776c-1.536-0.512-3.072-1.024-4.608-2.048l-4.608-1.536-4.608-1.536c-2.048 0-3.584-0.512-5.12-1.024" fill="#bfbfbf" p-id="21054"></path><path d="M680.96 381.952L497.664 311.296l7.168-245.248L691.712 122.88z" fill="#bfbfbf" p-id="21055"></path><path d="M272.384 955.904l-163.84-105.984 271.872-49.152 174.08 98.816z" fill="#bfbfbf" p-id="21056"></path><path d="M233.984 1013.248l-161.792-109.056c-3.072-2.048-6.144-4.608-8.704-7.68s-4.608-6.144-6.656-10.24c-2.048-3.584-3.072-7.68-4.096-11.776-1.024-4.096-1.536-8.704-1.536-13.824L212.992 967.68c0 5.12 0.512 9.728 1.536 14.336 1.024 4.608 2.56 8.704 4.096 12.8 2.048 4.096 4.096 7.168 6.656 10.24 2.56 3.072 5.632 5.632 8.704 8.192" fill="#bfbfbf" p-id="21057"></path><path d="M284.16 91.136L111.616 33.28 506.88 3.584l187.392 53.248zM212.992 967.68l-161.28-107.008 2.048-756.736 168.96 62.976z" fill="#bfbfbf" p-id="21058"></path><path d="M285.184 160.768l-12.8 795.136 282.112-56.32-2.048 60.928-283.136 58.88c-8.192 1.536-15.36 1.536-22.528-0.512-6.656-1.536-12.8-5.12-17.92-9.728-5.12-4.608-9.216-10.752-11.776-17.92-2.56-7.168-4.096-14.848-4.096-24.064l9.728-800.768c0-9.728 2.048-18.944 5.12-27.648 3.072-8.704 7.68-16.896 13.312-23.552 5.632-6.656 12.288-12.8 19.456-16.896 7.168-4.096 15.36-6.656 23.552-7.68l410.112-34.304 200.704 236.032-6.656 124.416-51.2 7.168 3.072-63.488-159.232 20.48 10.24-259.072-406.016 38.912z m458.24 22.016L737.28 311.808l105.984-12.8-99.84-116.224" fill="#bfbfbf" p-id="21059"></path><path d="M222.72 166.912l-168.96-62.976v-3.584c0-1.024 0-2.56 0.512-3.584 0-1.024 0.512-2.56 0.512-3.584 0-1.024 0.512-2.56 0.512-3.584l169.472 61.952c0 1.024-0.512 2.56-0.512 3.584 0 1.536-0.512 2.56-0.512 4.096 0 1.536 0 2.56-0.512 4.096 0 0.512 0 2.048-0.512 3.584M224.768 151.04L54.784 89.088c0-1.024 0.512-2.048 0.512-2.56 0-1.024 0.512-2.048 0.512-2.56 0-1.024 0.512-2.048 1.024-2.56 0.512-1.024 0.512-1.536 1.024-2.56l169.984 61.44c-0.512 1.024-0.512 2.048-1.024 3.072-0.512 1.024-0.512 2.048-1.024 3.072-0.512 1.024-0.512 2.048-0.512 3.072-0.512-0.512-0.512 0.512-0.512 1.536M227.84 139.776l-169.984-61.44c0-0.512 0.512-1.536 1.024-2.048 0.512-0.512 0.512-1.536 1.024-2.048s0.512-1.536 1.024-2.048c0.512-0.512 0.512-1.536 1.024-2.048l169.984 60.416c-0.512 0.512-0.512 1.536-1.024 2.048-0.512 0.512-0.512 1.536-1.024 2.048-0.512 0.512-0.512 1.536-1.024 2.048-0.512 1.536-1.024 2.048-1.024 3.072" fill="#bfbfbf" p-id="21060"></path><path d="M231.424 130.56L61.44 69.632c0.512-0.512 0.512-1.024 1.024-2.048 0.512-0.512 0.512-1.024 1.024-2.048 0.512-0.512 0.512-1.024 1.024-2.048 0.512-0.512 0.512-1.024 1.024-2.048l170.496 61.44c-0.512 0.512-1.024 1.024-1.024 2.048-0.512 0.512-0.512 1.536-1.024 2.048-0.512 0.512-0.512 1.536-1.024 2.048-0.512 0-1.024 1.024-1.536 1.536" fill="#bfbfbf" p-id="21061"></path><path d="M236.032 122.88L65.536 62.464c0.512-0.512 0.512-1.024 1.024-1.536 0.512-0.512 1.024-1.024 1.024-1.536 0.512-0.512 1.024-1.024 1.024-1.536l1.536-1.536L240.64 116.224l-1.536 1.536-1.536 1.536c-0.512 0.512-1.024 1.024-1.024 2.048 0 0 0 0.512-0.512 1.536M241.152 115.2L70.656 55.808l1.536-1.536 1.536-1.536 1.536-1.536 1.536-1.536 171.008 59.392-1.536 1.536-1.536 1.536-1.536 1.536c-1.024 0.512-1.536 1.024-2.048 1.536M247.296 108.544L76.288 49.152c0.512-0.512 1.024-1.024 2.048-1.536 0.512-0.512 1.536-1.024 2.048-1.536 0.512-0.512 1.536-1.024 2.048-1.536 0.512-0.512 1.536-1.024 2.048-1.536L256 101.888c-0.512 0.512-1.536 1.024-2.048 1.536-0.512 0.512-1.536 1.024-2.048 1.536-0.512 0.512-1.536 1.024-2.048 1.536-1.024 1.024-2.048 1.536-2.56 2.048" fill="#bfbfbf" p-id="21062"></path><path d="M255.488 101.888L84.48 43.008c2.048-1.536 4.096-2.56 6.144-3.584 2.048-1.024 4.608-2.048 6.656-3.072 2.048-1.024 4.608-1.536 7.168-2.048 2.56-0.512 4.608-1.024 7.168-1.024l172.544 57.856c-2.56 0-5.12 0.512-7.68 1.024s-5.12 1.536-7.168 2.048c-2.56 1.024-4.608 2.048-7.168 3.072-2.048 1.536-4.096 3.072-6.656 4.608" fill="#bfbfbf" p-id="21063"></path></svg>