<?xml version="1.0" standalone="no"?><!DOCTYPE svg PUBLIC "-//W3C//DTD SVG 1.1//EN" "http://www.w3.org/Graphics/SVG/1.1/DTD/svg11.dtd"><svg t="1522635501554" class="icon" style="" viewBox="0 0 1024 1024" version="1.1" xmlns="http://www.w3.org/2000/svg" p-id="3734" xmlns:xlink="http://www.w3.org/1999/xlink" width="64" height="64"><defs><style type="text/css"></style></defs><path d="M329.142857 292.571429l365.714286 0 0 73.142857-365.714286 0 0-73.142857Z" p-id="3735" fill="#bfbfbf"></path><path d="M182.857143 292.571429l73.142857 0 0 73.142857-73.142857 0 0-73.142857Z" p-id="3736" fill="#bfbfbf"></path><path d="M329.142857 475.428571l365.714286 0 0 73.142857-365.714286 0 0-73.142857Z" p-id="3737" fill="#bfbfbf"></path><path d="M182.857143 475.428571l73.142857 0 0 73.142857-73.142857 0 0-73.142857Z" p-id="3738" fill="#bfbfbf"></path><path d="M329.142857 658.285714l365.714286 0 0 73.142857-365.714286 0 0-73.142857Z" p-id="3739" fill="#bfbfbf"></path><path d="M182.857143 658.285714l73.142857 0 0 73.142857-73.142857 0 0-73.142857Z" p-id="3740" fill="#bfbfbf"></path><path d="M987.428571 292.571429l-109.714286 0L877.714286 109.714286c0-20.196571-16.356571-36.571429-36.571429-36.571429L36.571429 73.142857C16.3584 73.142857 0 89.517714 0 109.714286l0 804.571429c0 20.214857 16.356571 36.571429 36.571429 36.571429l950.857143 0c20.214857 0 36.571429-16.356571 36.571429-36.571429L1024 329.142857C1024 308.946286 1007.643429 292.571429 987.428571 292.571429zM73.142857 877.714286 73.142857 146.285714l731.428571 0 0 731.428571L73.142857 877.714286zM950.857143 877.714286l-73.142857 0L877.714286 365.714286l73.142857 0L950.857143 877.714286z" p-id="3741" fill="#bfbfbf"></path></svg>