<?xml version="1.0" standalone="no"?><!DOCTYPE svg PUBLIC "-//W3C//DTD SVG 1.1//EN" "http://www.w3.org/Graphics/SVG/1.1/DTD/svg11.dtd"><svg t="1522636986815" class="icon" style="" viewBox="0 0 1024 1024" version="1.1" xmlns="http://www.w3.org/2000/svg" p-id="7769" xmlns:xlink="http://www.w3.org/1999/xlink" width="64" height="64"><defs><style type="text/css"></style></defs><path d="M940.951539 574.189388c-22.494317-207.364815-182.533266-286.36303-325.32746-347.947643 4.988618-64.520479 13.205766-87.907119 13.205766-87.907119 5.301749-16.873296 12.174274-28.724205 12.174274-28.724205 6.499018-12.596899 6.499018-20.742417 6.499018-20.742417 0-13.085016-12.875239-23.692608-26.764574-23.692608-14.115486 0-25.663496 10.877745-25.663496 24.171516l-1.971911 126.960577c-77.363995-35.612079-72.624041-64.354704-90.304725-63.225997-17.815761 1.136893-8.831132 20.554128-90.505293 61.847603l-1.950422-125.582183c0-13.293771-11.552104-24.171516-25.663496-24.171516-13.893428 0-26.768667 10.607592-26.768667 23.692608 0 0 0 8.145517 6.503111 20.742417 0 0 6.868431 11.850909 12.170181 28.724205 0 0 8.208962 23.357987 13.19758 87.779206-158.64623 77.994352-288.028972 157.492964-307.298851 357.645516-14.219863 147.683551 89.556689 291.25955 245.930155 346.500689 124.316354 43.915186 291.550169 33.499975 386.756531-6.157233C864.810395 861.770152 957.303972 724.914204 940.951539 574.189388zM596.324524 837.984423c-0.326435 0.959861-0.77055 1.880837-1.153266 2.822278-11.007705 27.145244-43.85788 47.001477-83.157955 47.001477-39.321564 0-72.189136-19.874653-83.183538-47.039339-0.36532-0.907673-0.787946-1.793856-1.110287-2.718925-0.683569-1.944282-1.332345-3.917216-1.332345-6.072299 0-11.05887 9.754155-20.024056 21.789259-20.024056 1.062192 0 2.990101 0.24764 2.990101 0.24764 19.160385 2.178619 39.531342 3.242857 60.845787 3.242857 21.576411 0 42.203194-1.086751 61.568241-3.317559 0 0 1.466398-0.172939 2.27174-0.172939 12.035104 0 21.789259 8.965186 21.789259 20.024056C597.643566 834.108139 596.99479 836.057537 596.324524 837.984423zM513.092891 720.771861c-107.863636 0-195.300035-84.384899-195.300035-188.478675s87.436398-188.477652 195.300035-188.477652c107.859543 0 195.300035 84.383876 195.300035 188.477652S620.951411 720.771861 513.092891 720.771861z" p-id="7770" fill="#bfbfbf"></path><path d="M512.478907 541.979802m-140.472312 0a137.273 137.273 0 1 0 280.944624 0 137.273 137.273 0 1 0-280.944624 0Z" p-id="7771" fill="#bfbfbf"></path></svg>