<?xml version="1.0" standalone="no"?><!DOCTYPE svg PUBLIC "-//W3C//DTD SVG 1.1//EN" "http://www.w3.org/Graphics/SVG/1.1/DTD/svg11.dtd"><svg t="1522637061034" class="icon" style="" viewBox="0 0 1024 1024" version="1.1" xmlns="http://www.w3.org/2000/svg" p-id="7943" xmlns:xlink="http://www.w3.org/1999/xlink" width="64" height="64"><defs><style type="text/css"></style></defs><path d="M512 1024C229.677714 1024 0 794.322286 0 512S229.677714 0 512 0c146.642286 0 286.606629 63.464229 384.036571 174.125714 12.750629 14.482286 12.035657 36.375771-1.607314 50.018743L541.714286 576.8576c-6.857143 6.857143-16.142629 10.7136-25.857829 10.7136l0 0c-9.713371 0-19.000686-3.856457-25.857829-10.7136l-139.106743-139.125029-51.713829 51.695543 216.6784 216.749714 407.285029-407.303314c8.607086-8.5888 20.856686-12.392229 32.749714-10.053486 11.927771 2.285714 21.928229 10.338743 26.7136 21.482057C1010.071771 374.286629 1024 442.143086 1024 512 1024 794.322286 794.322286 1024 512 1024zM512 73.142857C269.999543 73.142857 73.142857 270.017829 73.142857 512c0 242.000457 196.856686 438.857143 438.857143 438.857143s438.857143-196.856686 438.857143-438.857143c0-41.179429-5.642971-81.554286-16.821029-120.572343L541.714286 783.786057c-6.857143 6.857143-16.142629 10.7136-25.857829 10.7136l0 0c-9.713371 0-19.000686-3.856457-25.857829-10.7136L221.6064 515.285943c-14.2848-14.2848-14.2848-37.429029 0-51.713829l103.427657-103.427657c6.857143-6.857143 16.142629-10.7136 25.857829-10.7136l0 0c9.713371 0 19.000686 3.856457 25.857829 10.7136l139.106743 139.143314L817.499429 197.624686C735.786057 118.142171 626.2144 73.142857 512 73.142857z" p-id="7944" fill="#bfbfbf"></path></svg>