<?xml version="1.0" standalone="no"?><!DOCTYPE svg PUBLIC "-//W3C//DTD SVG 1.1//EN" "http://www.w3.org/Graphics/SVG/1.1/DTD/svg11.dtd"><svg t="1522649733831" class="icon" style="" viewBox="0 0 1024 1024" version="1.1" xmlns="http://www.w3.org/2000/svg" p-id="7752" xmlns:xlink="http://www.w3.org/1999/xlink" width="64" height="64"><defs><style type="text/css"></style></defs><path d="M768 640h-64a16 16 0 0 0 0 32h41.888L672 745.888l-20.928-20.928a16 16 0 0 0-22.624 0l-83.52 83.52a16.096 16.096 0 0 0 10.08 28.864 16.096 16.096 0 0 0 12.544-6.24l72.224-72.224 20.928 20.928a15.936 15.936 0 0 0 22.656 0L768 695.136V736a16 16 0 0 0 32 0v-78.464a17.088 17.088 0 0 0 0-2.56V640h-32zM512 589.376c-117.792 0-213.6-95.808-213.6-213.6S394.208 162.176 512 162.176s213.6 95.84 213.6 213.6-95.808 213.6-213.6 213.6z m0-395.2a181.824 181.824 0 0 0-181.6 181.6c0 100.128 81.472 181.6 181.6 181.6s181.6-81.472 181.6-181.6A181.824 181.824 0 0 0 512 194.176zM816 861.824a16 16 0 0 1-16-16c0-14.208-1.056-28.48-3.104-42.368a16 16 0 0 1 31.648-4.704A320 320 0 0 1 832 845.824a16 16 0 0 1-16 16z" p-id="7753" fill="#bfbfbf"></path><path d="M208 861.824a16 16 0 0 1-16-16c0-141.248 94.592-267.552 230.048-307.2a16 16 0 0 1 8.96 30.72C309.12 604.992 224 718.688 224 845.824a16 16 0 0 1-16 16z" p-id="7754" fill="#bfbfbf"></path></svg>