<?xml version="1.0" standalone="no"?><!DOCTYPE svg PUBLIC "-//W3C//DTD SVG 1.1//EN" "http://www.w3.org/Graphics/SVG/1.1/DTD/svg11.dtd"><svg t="1522649822648" class="icon" style="" viewBox="0 0 1024 1024" version="1.1" xmlns="http://www.w3.org/2000/svg" p-id="7931" xmlns:xlink="http://www.w3.org/1999/xlink" width="64" height="64"><defs><style type="text/css"></style></defs><path d="M916.224 34.304H107.872C48.832 34.304 0.832 79.168 0.832 134.272v755.488c0 55.04 48 99.968 107.04 99.968h808.352c59.008 0 106.944-44.864 106.944-99.968V134.272c0-55.104-47.936-99.968-106.944-99.968z m40.064 855.456c0 20.64-17.984 37.408-40.064 37.408H107.872c-22.08 0-40.096-16.768-40.096-37.408V134.272c0-20.672 18.016-37.408 40.096-37.408h808.352c22.08 0 40.064 16.768 40.064 37.408v755.488z" p-id="7932" fill="#bfbfbf"></path><path d="M842.848 753.664H181.344a33.472 33.472 0 0 0 0 66.944h661.504a33.472 33.472 0 1 0 0-66.944z m31.968-515.584a18.784 18.784 0 0 0-1.568-5.088 19.04 19.04 0 0 0-3.04-4.992c-2.08-3.36-3.104-4.608-3.392-4.64l-1.472-1.536a22.336 22.336 0 0 0-4.576-3.2c-1.312-0.864-3.328-2.24-6.112-3.328-2.4-0.96-4.576-1.248-6.176-1.472a21.856 21.856 0 0 0-5.76-0.832h-198.432a33.504 33.504 0 0 0 0 66.976h123.328l-224.704 249.632-198.4-183.776-188.096 208.96a33.28 33.28 0 0 0-8.512 24.16 33.504 33.504 0 0 0 33.44 31.776c9.472 0 18.528-4.064 24.864-11.168l142.624-158.4 198.4 183.744 262.016-291.168v133.216a33.472 33.472 0 0 0 66.944 0l-0.096-221.312c-0.032-2.816-0.704-5.152-1.28-7.552z" p-id="7933" fill="#bfbfbf"></path></svg>