<?xml version="1.0" standalone="no"?><!DOCTYPE svg PUBLIC "-//W3C//DTD SVG 1.1//EN" "http://www.w3.org/Graphics/SVG/1.1/DTD/svg11.dtd"><svg t="1522649432398" class="icon" style="" viewBox="0 0 1024 1024" version="1.1" xmlns="http://www.w3.org/2000/svg" p-id="7323" xmlns:xlink="http://www.w3.org/1999/xlink" width="64" height="64"><defs><style type="text/css"></style></defs><path d="M640.5 161.5h67.2v67.2h-67.2zM316.3 161.5h67.2v67.2h-67.2zM417.1 161.5h189.8v67.2H417.1z" fill="#bfbfbf" p-id="7324"></path><path d="M847 161.5H741.3v67.2H847c25.3 0 45.8 20.6 45.8 45.8V847c0 25.3-20.6 45.8-45.8 45.8H177c-25.3 0-45.8-20.6-45.8-45.8V274.5c0-25.3 20.6-45.8 45.8-45.8h105.7v-67.2H177c-62.4 0-113 50.6-113 113V847c0 62.4 50.6 113 113 113h670c62.4 0 113-50.6 113-113V274.5c0-62.4-50.6-113-113-113z" fill="#bfbfbf" p-id="7325"></path><path d="M349.9 327.1c-18.6 0-33.6-15-33.6-33.6V97.6c0-18.6 15-33.6 33.6-33.6 18.5 0 33.6 15 33.6 33.6v195.9c0 18.6-15.1 33.6-33.6 33.6zM674.1 327.1c-18.5 0-33.6-15-33.6-33.6V97.6c0-18.6 15.1-33.6 33.6-33.6s33.6 15 33.6 33.6v195.9c0 18.6-15 33.6-33.6 33.6z" fill="#bfbfbf" p-id="7326"></path><path d="M929.1 440.1H95.7c-9.3 0-16.8-7.5-16.8-16.8s7.5-16.8 16.8-16.8h833.4c9.3 0 16.8 7.5 16.8 16.8s-7.6 16.8-16.8 16.8z" fill="#bfbfbf" p-id="7327"></path><path d="M208.7 512.6m-32.9 0a32.9 32.9 0 1 0 65.8 0 32.9 32.9 0 1 0-65.8 0Z" fill="#bfbfbf" p-id="7328"></path><path d="M309.8 512.6m-32.9 0a32.9 32.9 0 1 0 65.8 0 32.9 32.9 0 1 0-65.8 0Z" fill="#bfbfbf" p-id="7329"></path><path d="M410.9 512.6m-32.9 0a32.9 32.9 0 1 0 65.8 0 32.9 32.9 0 1 0-65.8 0Z" fill="#bfbfbf" p-id="7330"></path><path d="M511.9 512.6m-32.9 0a32.9 32.9 0 1 0 65.8 0 32.9 32.9 0 1 0-65.8 0Z" fill="#bfbfbf" p-id="7331"></path><path d="M613 512.6m-32.9 0a32.9 32.9 0 1 0 65.8 0 32.9 32.9 0 1 0-65.8 0Z" fill="#bfbfbf" p-id="7332"></path><path d="M714.1 512.6m-32.9 0a32.9 32.9 0 1 0 65.8 0 32.9 32.9 0 1 0-65.8 0Z" fill="#bfbfbf" p-id="7333"></path><path d="M815.1 512.6m-32.9 0a32.9 32.9 0 1 0 65.8 0 32.9 32.9 0 1 0-65.8 0Z" fill="#bfbfbf" p-id="7334"></path><path d="M208.7 660.6m-32.9 0a32.9 32.9 0 1 0 65.8 0 32.9 32.9 0 1 0-65.8 0Z" fill="#bfbfbf" p-id="7335"></path><path d="M309.8 660.6m-32.9 0a32.9 32.9 0 1 0 65.8 0 32.9 32.9 0 1 0-65.8 0Z" fill="#bfbfbf" p-id="7336"></path><path d="M410.9 660.6m-32.9 0a32.9 32.9 0 1 0 65.8 0 32.9 32.9 0 1 0-65.8 0Z" fill="#bfbfbf" p-id="7337"></path><path d="M511.9 660.6m-32.9 0a32.9 32.9 0 1 0 65.8 0 32.9 32.9 0 1 0-65.8 0Z" fill="#bfbfbf" p-id="7338"></path><path d="M613 660.6m-32.9 0a32.9 32.9 0 1 0 65.8 0 32.9 32.9 0 1 0-65.8 0Z" fill="#bfbfbf" p-id="7339"></path><path d="M714.1 660.6m-32.9 0a32.9 32.9 0 1 0 65.8 0 32.9 32.9 0 1 0-65.8 0Z" fill="#bfbfbf" p-id="7340"></path><path d="M815.1 660.6m-32.9 0a32.9 32.9 0 1 0 65.8 0 32.9 32.9 0 1 0-65.8 0Z" fill="#bfbfbf" p-id="7341"></path><path d="M208.7 808.6m-32.9 0a32.9 32.9 0 1 0 65.8 0 32.9 32.9 0 1 0-65.8 0Z" fill="#bfbfbf" p-id="7342"></path><path d="M309.8 808.6m-32.9 0a32.9 32.9 0 1 0 65.8 0 32.9 32.9 0 1 0-65.8 0Z" fill="#bfbfbf" p-id="7343"></path><path d="M410.9 808.6m-32.9 0a32.9 32.9 0 1 0 65.8 0 32.9 32.9 0 1 0-65.8 0Z" fill="#bfbfbf" p-id="7344"></path></svg>