<?xml version="1.0" standalone="no"?><!DOCTYPE svg PUBLIC "-//W3C//DTD SVG 1.1//EN" "http://www.w3.org/Graphics/SVG/1.1/DTD/svg11.dtd"><svg t="1522637630909" class="icon" style="" viewBox="0 0 1024 1024" version="1.1" xmlns="http://www.w3.org/2000/svg" p-id="11231" xmlns:xlink="http://www.w3.org/1999/xlink" width="64" height="64"><defs><style type="text/css"></style></defs><path d="M886.912 104.832h-244.192c-14.176-59.2-67.328-103.488-130.752-103.488s-116.512 44.288-130.72 103.488H137.12A125.024 125.024 0 0 0 12.064 229.76v667.776a125.056 125.056 0 0 0 125.056 125.056h374.848a31.36 31.36 0 0 0 0-62.656H137.12a62.528 62.528 0 0 1-62.528-62.432V229.792c0-34.464 28.064-62.464 62.528-62.464h749.792c34.432 0 62.464 28 62.464 62.464v292.896c0 17.216 13.92 31.328 31.136 31.328 17.248 0 31.328-14.08 31.328-31.328V229.792a125.056 125.056 0 0 0-124.928-124.96z m-440.064 0c11.68-24.224 36.448-40.992 65.088-40.992s53.472 16.768 65.12 40.992h-130.208z" p-id="11232" fill="#bfbfbf"></path><path d="M392.512 369.184h417.312a31.936 31.936 0 0 0 31.872-31.936 31.968 31.968 0 0 0-31.872-31.872H392.512a31.936 31.936 0 1 0 0 63.808zM182.176 270.048h127.648v134.368H182.176V270.048zM586.368 550.688a31.808 31.808 0 0 0-31.904-31.872h-161.952a31.872 31.872 0 1 0 0 63.712h161.952a31.776 31.776 0 0 0 31.904-31.84zM182.176 483.488h127.648v134.4H182.176v-134.4zM392.512 732.192a31.84 31.84 0 1 0 0 63.744h80.96a31.904 31.904 0 0 0 0-63.744h-80.96zM182.176 696.864h127.648v134.4H182.176v-134.4zM967.584 791.872c-9.344-5.696-9.056-26.08-10.624-32-1.728-6.592 1.44-22.368 11.776-35.2 10.592-13.184 28.544-23.36 28.704-25.408 1.856-20.352-4.448-43.36-27.04-58.944-13.152-9.216-31.712 11.168-52.8 12.608-14.368 0.832-23.808-11.904-26.848-14.176-42.944-31.072-14.208-69.536-18.208-76.32-3.584-6.016-31.872-27.84-59.328-20.512-25.696 6.624-17.792 38.656-37.312 52.384-6.336 4.32-24.288 4.992-34.752 3.744-36.48-4.192-41.632-50.368-66.88-43.648-24.576 6.752-44.8 26.272-46.272 42.176-1.536 16.544 17.856 27.072 16.96 44.448-0.448 8.864-10.912 19.52-14.784 27.008-3.264 6.016-17.984 15.232-34.784 15.776-13.664 0.448-28.992-7.584-38.24-5.312-6.688 1.568-18.88 14.752-20.48 27.424-1.888 15.04-8.48 28.96 2.016 44.32 11.168 16.544 24.672 7.776 40.896 22.688 10.336 9.76 8.352 21.44 9.12 26.432 1.6 10.784-1.408 29.28-11.744 41.92-7.264 8.768-23.136 12.896-25.856 21.408-8.416 27.136 9.184 50.848 21.088 59.84 16.224 12.512 41.504-10.336 62.016-11.456 11.328-0.704 20.096 8.928 25.824 15.776 7.488 8.928 15.104 20.096 15.104 34.944 0 11.456-6.752 25.536-2.72 35.392 7.04 17.12 33.888 25.44 53.408 25.44 25.248 0 25.536-34.016 39.616-50.272 10.016-11.776 23.264-9.184 27.392-9.312 8.352-0.448 23.52 0.864 36.192 11.456 6.752 5.6 10.048 20.864 16.672 25.312 13.184 8.864 25.824 8.864 32.16 5.44 13.92-7.328 27.136-11.904 38.464-29.6 7.616-11.936-13.504-29.408-13.664-49.504-0.128-18.08 16.224-32.704 19.392-37.344 3.168-4.736 21.216-11.776 35.456-11.232 15.936 0.448 30.112 5.312 32.672 4.064 10.08-5.024 11.488-10.08 16.544-22.72 4.736-11.648 5.152-18.944 5.152-31.872-0.064-19.744-27.072-24.512-44.288-35.168z m-194.08 101.248a110.048 110.048 0 1 1 0-220.096 110.112 110.112 0 0 1 110.112 109.984 110.144 110.144 0 0 1-110.112 110.112z" p-id="11233" fill="#bfbfbf"></path></svg>