<?xml version="1.0" standalone="no"?><!DOCTYPE svg PUBLIC "-//W3C//DTD SVG 1.1//EN" "http://www.w3.org/Graphics/SVG/1.1/DTD/svg11.dtd"><svg t="1522653207747" class="icon" style="" viewBox="0 0 1024 1024" version="1.1" xmlns="http://www.w3.org/2000/svg" p-id="26312" xmlns:xlink="http://www.w3.org/1999/xlink" width="64" height="64"><defs><style type="text/css"></style></defs><path d="M757.826 560.258c-109.324 0-197.953 88.629-197.953 197.953 0 109.329 88.624 197.968 197.953 197.968 109.334 0 197.953-88.629 197.953-197.968 0-109.324-88.624-197.953-197.953-197.953z m126.796 155.351L740.476 845.227a14.162 14.162 0 0 1-9.451 3.615 14.11 14.11 0 0 1-10.003-4.148L628.423 752.1c-5.525-5.511-5.525-14.473 0-19.982 5.525-5.525 14.481-5.525 19.997 0l83.118 83.104 134.168-120.646c5.797-5.234 14.758-4.754 19.953 1.057 5.244 5.81 4.77 14.742-1.037 19.976zM266.011 226.9c23.249 0 42.092-18.218 42.092-40.682v-81.369c0-22.479-18.843-40.692-42.092-40.692s-42.083 18.213-42.083 40.692v81.369c0 22.469 18.834 40.682 42.083 40.682zM686.892 226.9c23.249 0 42.088-18.218 42.088-40.682v-81.369c0-22.479-18.854-40.692-42.088-40.692-23.244 0-42.083 18.213-42.083 40.692v81.369c-0.014 22.469 18.838 40.682 42.083 40.682zM476.444 226.9c23.249 0 42.083-18.218 42.083-40.682v-81.369c0-22.479-18.838-40.692-42.083-40.692-23.234 0-42.078 18.213-42.078 40.692v81.369c-0.005 22.469 18.843 40.682 42.078 40.682z" fill="#bfbfbf" p-id="26313"></path><path d="M530.57 796.479H216.92c-19.377 0-35.075-15.194-35.075-33.907 0-18.717 15.698-33.892 35.075-33.892h312.89c4.677-34.682 17.05-66.912 35.337-94.939H223.928c-23.249 0-42.087-18.214-42.087-40.678 0-22.478 18.838-40.687 42.087-40.687h433.1c30.679-15.054 65.157-23.545 101.643-23.545 45.906 0 88.648 13.454 124.61 36.548V186.218c0-22.469-18.834-40.692-42.083-40.692h-70.14v40.692c0 44.942-37.688 81.374-84.176 81.374s-84.175-36.427-84.175-81.374v-40.692h-42.083v40.692c0 44.942-37.682 81.374-84.17 81.374-46.483 0-84.175-36.427-84.175-81.374v-40.692h-42.087v40.692c0 44.942-37.682 81.374-84.17 81.374-46.484 0-84.17-36.427-84.17-81.374v-40.692h-70.154c-23.249 0-42.083 18.218-42.083 40.692v705.196c0 22.454 18.834 40.673 42.083 40.673h493.056c-38.688-34.595-65.644-82.033-74.184-135.608zM223.928 376.068H728.98c23.244 0 42.078 18.223 42.078 40.692 0 22.459-18.834 40.672-42.078 40.672H223.928c-23.249 0-42.087-18.213-42.087-40.672-0.001-22.468 18.838-40.692 42.087-40.692z" fill="#bfbfbf" p-id="26314"></path></svg>