<?xml version="1.0" standalone="no"?><!DOCTYPE svg PUBLIC "-//W3C//DTD SVG 1.1//EN" "http://www.w3.org/Graphics/SVG/1.1/DTD/svg11.dtd"><svg t="1522637954399" class="icon" style="" viewBox="0 0 1024 1024" version="1.1" xmlns="http://www.w3.org/2000/svg" p-id="13227" xmlns:xlink="http://www.w3.org/1999/xlink" width="64" height="64"><defs><style type="text/css"></style></defs><path d="M472.2 725.6 119.6 725.6c-30.7 0-55.6-24.9-55.6-55.6L64 119.6C64 88.9 88.9 64 119.6 64l656.8 0c30.7 0 55.6 24.9 55.6 55.6l0 289.7c0 17.7 14.3 32 32 32s32-14.3 32-32L896 119.6C896 53.7 842.3 0 776.4 0L119.6 0C53.7 0 0 53.7 0 119.6l0 550.3c0 66 53.7 119.6 119.6 119.6l352.6 0c17.7 0 32-14.3 32-32S489.9 725.6 472.2 725.6z" p-id="13228" fill="#bfbfbf"></path><path d="M735 415.9c17.7 0 32-14.3 32-32L767 127 510.1 127c-17.7 0-32 14.3-32 32s14.3 32 32 32l147.3 0L454.2 392.9 339.6 275.4c-6-6.1-14.1-9.6-22.7-9.7-8.5-0.1-16.8 3.3-22.8 9.4L96.6 472.4c-12.5 12.5-12.5 32.8 0 45.3 6.3 6.3 14.4 9.4 22.6 9.4 8.2 0 16.4-3.1 22.6-9.4l174.5-174.4 114.6 117.5c6 6.1 14.1 9.6 22.7 9.7 8.5 0.1 16.8-3.3 22.8-9.3L703 235.9l0 148C703 401.5 717.3 415.9 735 415.9z" p-id="13229" fill="#bfbfbf"></path><path d="M1010 657.8 878.6 526.2c-9-9.1-21.3-14.2-34.2-14.2L630 512c-29.8 0-54 24.1-54 53.8l0 402.4c0 29.7 24.2 53.8 54 53.8l340 0c29.8 0 54-24.1 54-53.8L1024 691.7C1024 679 1019 666.8 1010 657.8zM960 958 640 958 640 576l197.9 0L960 698.3 960 958z" p-id="13230" fill="#bfbfbf"></path><path d="M691.7 704l91.9 0c17.7 0 32-14.3 32-32s-14.3-32-32-32l-91.9 0c-17.7 0-32 14.3-32 32S674 704 691.7 704z" p-id="13231" fill="#bfbfbf"></path><path d="M659.7 768c0 17.7 14.3 32 32 32l206.9 0c17.7 0 32-14.3 32-32s-14.3-32-32-32L691.7 736C674 736 659.7 750.3 659.7 768z" p-id="13232" fill="#bfbfbf"></path><path d="M898.6 832 691.7 832c-17.7 0-32 14.3-32 32s14.3 32 32 32l206.9 0c17.7 0 32-14.3 32-32S916.2 832 898.6 832z" p-id="13233" fill="#bfbfbf"></path></svg>