<?xml version="1.0" standalone="no"?><!DOCTYPE svg PUBLIC "-//W3C//DTD SVG 1.1//EN" "http://www.w3.org/Graphics/SVG/1.1/DTD/svg11.dtd"><svg t="1522639528639" class="icon" style="" viewBox="0 0 1024 1024" version="1.1" xmlns="http://www.w3.org/2000/svg" p-id="21435" xmlns:xlink="http://www.w3.org/1999/xlink" width="64" height="64"><defs><style type="text/css"></style></defs><path d="M125 72.389l774 0 0 141.803-774 0 0-141.803ZM511.016 326.96c84.607 0 161.512 33.879 218.634 89.153l157.534-172.38L134.848 243.733l157.535 172.38C349.505 360.839 426.41 326.96 511.016 326.96zM512.002 367.808c-153.91 0-278.68 124.772-278.68 278.682s124.77 278.676 278.68 278.676c153.908 0 278.68-124.766 278.68-278.676S665.91 367.808 512.002 367.808zM620.615 801.053l-108.613-57.1-108.616 57.1 20.745-120.943-87.87-85.651 121.434-17.646 54.307-110.039 54.306 110.039 121.433 17.646-87.868 85.651L620.615 801.053z" p-id="21436" fill="#bfbfbf"></path></svg>