<?xml version="1.0" standalone="no"?><!DOCTYPE svg PUBLIC "-//W3C//DTD SVG 1.1//EN" "http://www.w3.org/Graphics/SVG/1.1/DTD/svg11.dtd"><svg t="1522640896379" class="icon" style="" viewBox="0 0 1024 1024" version="1.1" xmlns="http://www.w3.org/2000/svg" p-id="34468" xmlns:xlink="http://www.w3.org/1999/xlink" width="64" height="64"><defs><style type="text/css"></style></defs><path d="M1019.136 51.2H192.512a38.912 38.912 0 0 0-38.912 38.4c0 20.608 17.408 38.4 38.912 38.4H1024v818.944c0 42.368-37.632 77.056-83.52 77.056H160.32c-45.952 0-83.52-34.688-83.52-77.056v-54.784h28.224c25.472 0 46.08-20.864 46.08-46.592v-69.76a46.336 46.336 0 0 0-46.08-46.592H76.8V589.568h28.224c25.472 0 46.08-20.864 46.08-46.528V473.216a46.336 46.336 0 0 0-46.08-46.592H76.8V287.04h28.224c25.472 0 46.08-20.864 46.08-46.592v-69.76a46.336 46.336 0 0 0-46.08-46.592H76.8v-47.04C76.8 34.688 114.368 0 160.32 0h780.16c36.096 0 67.072 21.44 78.656 51.2zM31.616 263.552C14.144 263.552 0 247.936 0 228.672v-46.528C0 162.88 14.144 147.2 31.616 147.2h63.232c17.472 0 31.616 15.616 31.616 34.88v46.528c0 19.2-14.144 34.88-31.616 34.88H31.616z m0 302.272C14.144 565.824 0 550.208 0 530.944V484.48c0-19.264 14.144-34.88 31.616-34.88h63.232c17.472 0 31.616 15.616 31.616 34.88v46.464c0 19.264-14.144 34.88-31.616 34.88H31.616z m63.232 302.336H31.616c-17.472 0-31.616-15.616-31.616-34.88v-46.528c0-19.2 14.144-34.88 31.616-34.88h63.232c17.472 0 31.616 15.616 31.616 34.88v46.528c0 19.264-14.144 34.88-31.616 34.88z m679.68-196.096C744.128 652.8 656.512 640 656.512 640s-56.896 57.792-80.96 57.792c-24.192 0-80.96-57.792-80.96-57.792s-87.616 12.8-118.016 32c-30.4 19.392-43.84 121.6-43.84 121.6h486.4s-8.832-98.816-44.736-121.6zM576 588.8a140.8 140.8 0 1 0 0-281.6 140.8 140.8 0 0 0 0 281.6z" fill="#bfbfbf" p-id="34469"></path></svg>